<svg width="390" height="192" viewBox="0 0 390 192" fill="none" xmlns="http://www.w3.org/2000/svg">
<path d="M390 0H0V210H390V0Z" fill="url(#paint0_linear_6870_108846)"/>
<path opacity="0.3" d="M0 0C0 0 284.532 187.553 390 193.82V210H0V0Z" fill="url(#paint1_linear_6870_108846)"/>
<path opacity="0.2" d="M0 202.5C0 202.5 243.979 186 390 0V210H0V202.5Z" fill="url(#paint2_linear_6870_108846)"/>
<path opacity="0.4" d="M153.538 0C153.538 0 38.8704 186.641 0 210H390C390 210 305.133 143.114 243.07 0H153.538Z" fill="url(#paint3_linear_6870_108846)"/>
<defs>
<linearGradient id="paint0_linear_6870_108846" x1="0.0343355" y1="105.003" x2="390.086" y2="105.003" gradientUnits="userSpaceOnUse">
<stop stop-color="#254384"/>
<stop offset="0.9997" stop-color="#376AB3"/>
</linearGradient>
<linearGradient id="paint1_linear_6870_108846" x1="0.0343355" y1="105.003" x2="390.086" y2="105.003" gradientUnits="userSpaceOnUse">
<stop stop-color="#5294F7"/>
<stop offset="0.9997" stop-color="#5294F6" stop-opacity="0.2"/>
</linearGradient>
<linearGradient id="paint2_linear_6870_108846" x1="0.0343355" y1="105.003" x2="390.086" y2="105.003" gradientUnits="userSpaceOnUse">
<stop stop-color="#5EBBFF"/>
<stop offset="0.9997" stop-color="#A3D8FF" stop-opacity="0.2"/>
</linearGradient>
<linearGradient id="paint3_linear_6870_108846" x1="0.0343355" y1="105.003" x2="390.086" y2="105.003" gradientUnits="userSpaceOnUse">
<stop offset="0.00032746" stop-color="#376AB3"/>
<stop offset="1" stop-color="#003F81"/>
</linearGradient>
</defs>
</svg>
