<svg width="90" height="90" viewBox="0 0 90 90" fill="none" xmlns="http://www.w3.org/2000/svg">
<path d="M29.5577 21.4357C30.5493 19.3379 32.6617 18 34.9821 18H71.0179C73.3383 18 75.4507 19.3379 76.4423 21.4357L87.7878 45.4357C88.5552 47.0591 88.5552 48.9409 87.7878 50.5643L76.4423 74.5643C75.4507 76.6621 73.3383 78 71.0179 78H34.9821C32.6617 78 30.5493 76.6621 29.5577 74.5643L18.2122 50.5643C17.4448 48.9409 17.4448 47.0591 18.2122 45.4357L29.5577 21.4357Z" fill="url(#paint0_linear_758_1375)"/>
<path d="M21.5577 11.4357C22.5493 9.33793 24.6617 8 26.9821 8H63.0179C65.3383 8 67.4507 9.33793 68.4423 11.4357L79.7878 35.4357C80.5552 37.0591 80.5552 38.9409 79.7878 40.5643L68.4423 64.5643C67.4507 66.6621 65.3383 68 63.0179 68H26.9821C24.6617 68 22.5493 66.6621 21.5577 64.5643L10.2122 40.5643C9.44478 38.9409 9.44478 37.0591 10.2122 35.4357L21.5577 11.4357Z" fill="url(#paint1_linear_758_1375)"/>
<path fill-rule="evenodd" clip-rule="evenodd" d="M42 41V50H48V41H57V35H48V26H42V35H33V41H42Z" fill="white"/>
<defs>
<linearGradient id="paint0_linear_758_1375" x1="16.9947" y1="48.0469" x2="89.01" y2="48.0469" gradientUnits="userSpaceOnUse">
<stop offset="0.00032746" stop-color="#427ACA"/>
<stop offset="1" stop-color="#003F81"/>
</linearGradient>
<linearGradient id="paint1_linear_758_1375" x1="64.8947" y1="8" x2="19.3188" y2="67.1919" gradientUnits="userSpaceOnUse">
<stop stop-color="#49D5FF"/>
<stop offset="1" stop-color="#089AC7"/>
</linearGradient>
</defs>
</svg>
