<svg width="390" height="192" viewBox="0 0 390 192" fill="none" xmlns="http://www.w3.org/2000/svg">
<g clip-path="url(#clip0_6870_109369)">
<rect width="390" height="192" rx="10" fill="url(#paint0_linear_6870_109369)"/>
<rect width="390" height="192" rx="10" fill="white" fill-opacity="0.7"/>
<rect width="390" height="192" rx="10" fill="url(#paint1_linear_6870_109369)"/>
<path d="M246.381 122L401.559 -58L563 122H246.381Z" fill="url(#paint2_linear_6870_109369)"/>
<path opacity="0.8" d="M7.05469 235L275.843 -58H314.361L61.0661 235H7.05469Z" fill="url(#paint3_linear_6870_109369)"/>
<path d="M264.074 299L-26.1325 6H-82.3441L205.407 299H264.074Z" fill="url(#paint4_linear_6870_109369)"/>
<path d="M48.0283 235L310.298 -58H337.642L73.1716 235H48.0283Z" fill="url(#paint5_linear_6870_109369)"/>
<path d="M106.696 206L375.485 -87H404.691L140.221 206H106.696Z" fill="url(#paint6_linear_6870_109369)"/>
<path opacity="0.2" d="M-46.0254 258L52.5583 153L155.121 258H-46.0254Z" fill="url(#paint7_linear_6870_109369)"/>
<path fill-rule="evenodd" clip-rule="evenodd" d="M-87.0004 2.5C-87.0004 35.7519 -74.5612 65.8839 -54.4074 87.8228V87H-9.70819V84H-54.4074V82H-9.70819V79H-54.4074V77H-9.70819V74H-54.4074V72H-9.70819V69H-54.4074V67H-9.70819V64H-54.4074V62H-9.70819V59H-54.4074V57H-9.70819V54H-54.4074V52H-9.70819V49H-54.4074V47H-9.70819V44H-54.4074V42H-9.70819V39H-54.4074V37H-9.70819V34H-54.4074V32H-9.70819V29H-54.4074V27H-9.70819V24H-54.4074V22H-9.70819V19H-54.4074V17H-9.70819V14H-54.4074V12H-9.70819V9H-54.4074V7H-9.70819V4H-54.4074V2H-9.70819V-1H-54.4074V-3H-9.70819V-6H-54.4074V-8H-9.70819V-11H-54.4074V-13H-9.70819V-38H-7.84573V-13H-5.05199V-38H-3.18953V-13H-0.395889V-38H1.46657V-13H4.26033V-38H6.12279V-13H8.91643V-38H10.7789V-13H13.5727V-38H15.4351V-13H18.2287V-38H20.0912V-13H22.885V-38H24.7474V-13H27.5412V-38H29.4036V-13H32.1973V-38H34.0597V-13H36.8535V-38H38.716V-13H41.5096V-38H43.372V-13H46.1658V-38H48.0283V-13H50.8219V-38H52.6844V-13H55.4781V-38H57.3406V-13H60.1342V-38H61.9967V-13H64.7904V-38L66.6529 -38V-13H69.4465V-38H71.309V-13H74.1027V-38H75.9652V-13H78.7588V-38H80.6213V-13H83.415V-38H85.2775V-13H88.0713V-38H89.9337V-13H92.7273V-38H94.5898V-13H97.3836V-38H99.246V-13H102.04V-38H103.902V-13H106.696V-38H108.558V-13H111.352V-38H113.214V-13H116.008V-38H117.871V-13H120.664V-38H122.527V-13H125.32L125.32 -38H127.183L127.183 -13H129.977L129.977 -38H131.839L131.839 -13H134.633L134.633 -32.1086C120.755 -82.3509 77.4352 -119 26.1443 -119C-36.3438 -119 -87.0004 -64.6026 -87.0004 2.5ZM136.495 -24.453C137.287 -20.6983 137.917 -16.8777 138.377 -13H136.495L136.495 -24.453ZM136.495 -11H138.598C138.701 -10.0036 138.792 -9.00353 138.872 -8H136.495V-11ZM136.495 -6H139.016C139.081 -5.00326 139.134 -4.00321 139.175 -3H136.495L136.495 -6ZM134.633 -3V-6H131.839V-3H134.633ZM136.495 -1H139.243C139.269 -0.00296021 139.284 0.997086 139.288 2H136.495L136.495 -1ZM134.633 2V-1H131.839V2H134.633ZM136.495 4H139.281C139.269 5.00297 139.247 6.00302 139.213 7H136.495L136.495 4ZM134.633 7V4H131.839V7H134.633ZM136.495 9H139.13C139.081 10.0033 139.02 11.0033 138.948 12H136.495L136.495 9ZM134.633 12V9H131.839V12H134.633ZM136.495 14H138.789C138.701 15.0036 138.602 16.0036 138.492 17H136.495V14ZM134.633 17L134.633 14H131.839L131.839 17H134.633ZM136.495 19H138.254C138.128 20.004 137.989 21.004 137.84 22H136.495V19ZM134.633 22V19H131.839V22H134.633ZM136.495 24H137.523C137.356 25.0043 137.178 26.0044 136.988 27H136.495V24ZM134.633 27L134.633 24H131.839L131.839 27H134.633ZM136.495 29H136.59C136.559 29.1511 136.527 29.3021 136.495 29.453L136.495 29ZM134.633 32V29H131.839V32H134.633ZM134.633 37V34H131.839V37H134.633ZM131.839 39H134.095C133.8 40.0057 133.494 41.0058 133.175 42H131.839V39ZM129.977 42V39H127.183V42H129.977ZM131.839 44H132.517C132.296 44.653 132.07 45.3034 131.839 45.9511V44ZM129.977 47V44H127.183V47H129.977ZM129.977 50.8481V49H127.183V52H129.504C129.663 51.6171 129.821 51.2331 129.977 50.8481ZM125.32 52V49H122.527V52H125.32ZM127.183 54H128.652C128.212 55.0076 127.76 56.0077 127.295 57H127.183V54ZM125.32 57V54H122.527V57H125.32ZM125.32 61.0278V59H122.527V62H124.816C124.986 61.6768 125.154 61.3528 125.32 61.0278ZM122.527 64H123.745C123.346 64.729 122.94 65.4531 122.527 66.1723V64ZM120.664 67V64H117.871V67H120.664ZM120.664 69.308V69H117.871V72H118.962C119.541 71.1113 120.108 70.2139 120.664 69.308ZM116.008 76.3344V74H113.214V77H115.53C115.69 76.7788 115.849 76.5569 116.008 76.3344ZM113.214 79H114.051C113.774 79.3663 113.495 79.7309 113.214 80.0937V79ZM111.352 82V79H108.558V82H111.352ZM108.558 84H110.06C109.565 84.5876 109.064 85.1701 108.558 85.7472V84ZM106.696 87V84H103.902V87H106.696ZM103.902 89H105.6C105.04 89.5934 104.474 90.1806 103.902 90.7615V89ZM102.04 92V89H99.246V92H102.04ZM99.246 94H100.587C100.143 94.4169 99.6961 94.8301 99.246 95.2395V94ZM97.3836 96.8979V94H94.5898V97H97.2663C97.3054 96.966 97.3445 96.932 97.3836 96.8979ZM94.5898 99H94.9013C94.7976 99.0853 94.6938 99.1704 94.5898 99.2554V99ZM92.7273 100.745V99H89.9337V102H91.0941C91.6421 101.587 92.1865 101.168 92.7273 100.745ZM88.0712 104.202V104H85.2775V106.106C86.2179 105.486 87.1493 104.851 88.0712 104.202ZM83.415 107H80.6213V104H83.415V107ZM83.415 102H80.6213V99H83.415V102ZM83.415 97H80.6213V94H83.415V97ZM85.2775 94V97H88.0712V94H85.2775ZM83.415 92H80.6213V89H83.415V92ZM85.2775 89V92H88.0712V89H85.2775ZM83.415 87H80.6213V84H83.415V87ZM85.2775 84V87H88.0712V84H85.2775ZM83.415 82H80.6213V79H83.415V82ZM85.2775 79V82H88.0712V79H85.2775ZM83.415 77H80.6213V74H83.415V77ZM85.2775 74V77H88.0712V74H85.2775ZM83.415 72H80.6213V69H83.415V72ZM85.2775 69V72H88.0712V69H85.2775ZM83.415 67H80.6213V64H83.415V67ZM85.2775 64V67H88.0712V64H85.2775ZM83.415 62H80.6213V59H83.415V62ZM85.2775 59V62H88.0712V59H85.2775ZM83.415 57H80.6213V54H83.415V57ZM85.2775 54V57H88.0712V54H85.2775ZM85.2775 52V49H88.0712V52H85.2775ZM83.415 52V49H80.6213V52H83.415ZM78.7588 52V49H75.9652V52H78.7588ZM78.7588 54V57H75.9652V54H78.7588ZM74.1027 54V57H71.309V54H74.1027ZM71.309 52V49H74.1027V52H71.309ZM69.4465 52V49H66.6529V52H69.4465ZM69.4465 54V57H66.6529V54H69.4465ZM64.7904 54V57H61.9967V54H64.7904ZM61.9967 52V49H64.7904V52H61.9967ZM60.1342 52V49H57.3406V52H60.1342ZM60.1342 54V57H57.3406V54H60.1342ZM55.4781 54V57H52.6843V54H55.4781ZM52.6843 52V49H55.4781V52H52.6843ZM50.8219 52V49H48.0283V52H50.8219ZM50.8219 54V57H48.0283V54H50.8219ZM46.1658 54V57H43.372V54H46.1658ZM43.372 52V49H46.1658V52H43.372ZM41.5096 52V49H38.7159V52H41.5096ZM41.5096 54V57H38.7159V54H41.5096ZM36.8535 54V57H34.0597V54H36.8535ZM34.0597 52V49H36.8535V52H34.0597ZM32.1973 52V49H29.4036V52H32.1973ZM32.1973 54V57H29.4036V54H32.1973ZM27.5412 54V57H24.7474V54H27.5412ZM24.7474 52V49H27.5412V52H24.7474ZM22.8849 52V49H20.0912V52H22.8849ZM22.8849 54V57H20.0912V54H22.8849ZM18.2287 54V57H15.4351V54H18.2287ZM15.4351 52V49H18.2287V52H15.4351ZM13.5727 52V49H10.7789V52H13.5727ZM13.5727 54V57H10.7789V54H13.5727ZM8.91643 54V57H6.12279V54H8.91643ZM6.12279 52V49H8.91643V52H6.12279ZM4.26033 52V49H1.46657V52H4.26033ZM4.26033 54V57H1.46657V54H4.26033ZM-0.395889 54V57H-3.18953V54H-0.395889ZM-3.18953 52V49H-0.395889V52H-3.18953ZM-5.05199 52V49H-7.84573V52H-5.05199ZM-5.05199 54V57H-7.84573V54H-5.05199ZM-7.84573 59H-5.05199V62H-7.84573V59ZM-7.84573 64H-5.05199V67H-7.84573V64ZM-7.84573 69H-5.05199V72H-7.84573V69ZM-7.84573 74H-5.05199V77H-7.84573V74ZM-7.84573 79H-5.05199V82H-7.84573V79ZM-7.84573 84H-5.05199V87H-7.84573V84ZM-7.84573 89H-5.05199V92H-7.84573V89ZM-7.84573 94H-5.05199V97H-7.84573V94ZM-9.70819 97V94H-48.2984C-47.2097 95.0223 -46.1026 96.0225 -44.9776 97H-9.70819ZM-7.84573 99H-5.05199V102H-7.84573V99ZM-9.70819 102V99H-42.6126C-41.3638 100.028 -40.0945 101.028 -38.8054 102H-9.70819ZM-7.84573 104H-5.05199V107H-7.84573V104ZM-9.70819 107V104H-36.0693C-34.6067 105.036 -33.1204 106.036 -31.6115 107H-9.70819ZM-7.84573 109H-5.05199V112H-7.84573V109ZM-9.70819 112V109H-28.3585C-26.5825 110.05 -24.7774 111.051 -22.9449 112H-9.70819ZM-7.84573 114H-5.05199V117H-7.84573V114ZM-9.70819 117V114H-18.8787C-16.5576 115.082 -14.1962 116.083 -11.7975 117H-9.70819ZM-3.18953 117V114H-0.395889V117H-3.18953ZM-0.395889 119H-3.18953V119.877C-2.26295 120.143 -1.33168 120.397 -0.395889 120.639V119ZM1.46657 117V114H4.26033V117H1.46657ZM4.26033 119H1.46657V121.102C2.39359 121.323 3.32489 121.532 4.26033 121.729V119ZM6.12279 117V114H8.91643V117H6.12279ZM8.91643 119H6.12279V122H8.91643V119ZM10.7789 117V114H13.5727V117H10.7789ZM13.5727 119H10.7789V122H13.5727V119ZM15.4351 117V114H18.2287V117H15.4351ZM18.2287 119H15.4351V122H18.2287V119ZM20.0912 117V114H22.8849V117H20.0912ZM22.8849 119H20.0912V122H22.8849V119ZM24.7474 117V114H27.5412V117H24.7474ZM27.5412 119H24.7474V122H27.5412V119ZM29.4036 117V114H32.1973V117H29.4036ZM32.1973 119H29.4036V122H32.1973V119ZM34.0597 117V114H36.8535V117H34.0597ZM36.8535 119H34.0597V122H36.8535V119ZM38.7159 117V114H41.5096V117H38.7159ZM41.5096 119H38.7159V122H41.5096V119ZM43.372 117V114H46.1658V117H43.372ZM46.1658 119H43.372V122H46.1658V119ZM48.0283 117V114H50.8219V117H48.0283ZM50.8219 119H48.0283V121.729C48.9636 121.532 49.8949 121.323 50.8219 121.102V119ZM52.6843 117V114H55.4781V117H52.6843ZM55.4781 119H52.6843V120.639C53.6202 120.397 54.5515 120.143 55.4781 119.877V119ZM57.3406 117V114H60.1342V117H57.3406ZM61.9967 117V114H64.7904V116.728C64.556 116.819 64.3213 116.91 64.0861 117H61.9967ZM66.6529 115.981V114H69.4465V114.784C68.5214 115.196 67.5901 115.595 66.6529 115.981ZM69.4465 112H66.6529V109H69.4465V112ZM71.309 109V112H74.1027V109H71.309ZM69.4465 107H66.6529V104H69.4465V107ZM71.309 104V107H74.1027V104H71.309ZM69.4465 102H66.6529V99H69.4465V102ZM71.309 99V102H74.1027V99H71.309ZM69.4465 97H66.6529V94H69.4465V97ZM71.309 94V97H74.1027V94H71.309ZM69.4465 92H66.6529V89H69.4465V92ZM71.309 89V92H74.1027V89H71.309ZM69.4465 87H66.6529V84H69.4465V87ZM71.309 84V87H74.1027V84H71.309ZM69.4465 82H66.6529V79H69.4465V82ZM71.309 79V82H74.1027V79H71.309ZM69.4465 77H66.6529V74H69.4465V77ZM71.309 74V77H74.1027V74H71.309ZM69.4465 72H66.6529V69H69.4465V72ZM71.309 69V72H74.1027V69H71.309ZM69.4465 67H66.6529V64H69.4465V67ZM71.309 64V67H74.1027V64H71.309ZM69.4465 62H66.6529V59H69.4465V62ZM71.309 59V62H74.1027V59H71.309ZM75.9652 59H78.7588V62H75.9652V59ZM75.9652 64H78.7588V67H75.9652V64ZM75.9652 69H78.7588V72H75.9652V69ZM75.9652 74H78.7588V77H75.9652V74ZM75.9652 79H78.7588V82H75.9652V79ZM75.9652 84H78.7588V87H75.9652V84ZM75.9652 89H78.7588V92H75.9652V89ZM75.9652 94H78.7588V97H75.9652V94ZM75.9652 99H78.7588V102H75.9652V99ZM75.9652 104H78.7588V107H75.9652V104ZM75.9652 109H78.7588V110.092C77.8351 110.614 76.9038 111.122 75.9652 111.618V109ZM80.6213 109.015V109H80.6472C80.6385 109.005 80.6299 109.01 80.6213 109.015ZM64.7904 59V62H61.9967V59H64.7904ZM60.1342 59V62H57.3406V59H60.1342ZM55.4781 59V62H52.6843V59H55.4781ZM50.8219 59V62H48.0283V59H50.8219ZM46.1658 59V62H43.372V59H46.1658ZM41.5096 59V62H38.7159V59H41.5096ZM36.8535 59V62H34.0597V59H36.8535ZM32.1973 59V62H29.4036V59H32.1973ZM27.5412 59V62H24.7474V59H27.5412ZM22.8849 59V62H20.0912V59H22.8849ZM18.2287 59V62H15.4351V59H18.2287ZM13.5727 59V62H10.7789V59H13.5727ZM8.91643 59V62H6.12279V59H8.91643ZM4.26033 59V62H1.46657V59H4.26033ZM-0.395889 59V62H-3.18953V59H-0.395889ZM-3.18953 64H-0.395889V67H-3.18953V64ZM-3.18953 69H-0.395889V72H-3.18953V69ZM-3.18953 74H-0.395889V77H-3.18953V74ZM-3.18953 79H-0.395889V82H-3.18953V79ZM-3.18953 84H-0.395889V87H-3.18953V84ZM-3.18953 89H-0.395889V92H-3.18953V89ZM-3.18953 94H-0.395889V97H-3.18953V94ZM-3.18953 99H-0.395889V102H-3.18953V99ZM-3.18953 104H-0.395889V107H-3.18953V104ZM-3.18953 109H-0.395889V112H-3.18953V109ZM1.46657 112V109H4.26033V112H1.46657ZM6.12279 112V109H8.91643V112H6.12279ZM10.7789 112V109H13.5727V112H10.7789ZM15.4351 112V109H18.2287V112H15.4351ZM20.0912 112V109H22.8849V112H20.0912ZM24.7474 112V109H27.5412V112H24.7474ZM29.4036 112V109H32.1973V112H29.4036ZM34.0597 112V109H36.8535V112H34.0597ZM38.7159 112V109H41.5096V112H38.7159ZM43.372 112V109H46.1658V112H43.372ZM48.0283 112V109H50.8219V112H48.0283ZM52.6843 112V109H55.4781V112H52.6843ZM57.3406 112V109H60.1342V112H57.3406ZM61.9967 112V109H64.7904V112H61.9967ZM64.7904 107H61.9967V104H64.7904V107ZM64.7904 102H61.9967V99H64.7904V102ZM64.7904 97H61.9967V94H64.7904V97ZM64.7904 92H61.9967V89H64.7904V92ZM64.7904 87H61.9967V84H64.7904V87ZM64.7904 82H61.9967V79H64.7904V82ZM64.7904 77H61.9967V74H64.7904V77ZM64.7904 72H61.9967V69H64.7904V72ZM64.7904 67H61.9967V64H64.7904V67ZM60.1342 64V67H57.3406V64H60.1342ZM55.4781 64V67H52.6843V64H55.4781ZM50.8219 64V67H48.0283V64H50.8219ZM46.1658 64V67H43.372V64H46.1658ZM41.5096 64V67H38.7159V64H41.5096ZM36.8535 64V67H34.0597V64H36.8535ZM32.1973 64V67H29.4036V64H32.1973ZM27.5412 64V67H24.7474V64H27.5412ZM22.8849 64V67H20.0912V64H22.8849ZM18.2287 64V67H15.4351V64H18.2287ZM13.5727 64V67H10.7789V64H13.5727ZM8.91643 64V67H6.12279V64H8.91643ZM4.26033 64V67H1.46657V64H4.26033ZM1.46657 69H4.26033V72H1.46657V69ZM1.46657 74H4.26033V77H1.46657V74ZM1.46657 79H4.26033V82H1.46657V79ZM1.46657 84H4.26033V87H1.46657V84ZM1.46657 89H4.26033V92H1.46657V89ZM1.46657 94H4.26033V97H1.46657V94ZM1.46657 99H4.26033V102H1.46657V99ZM1.46657 104H4.26033V107H1.46657V104ZM6.12279 107V104H8.91643V107H6.12279ZM10.7789 107V104H13.5727V107H10.7789ZM15.4351 107V104H18.2287V107H15.4351ZM20.0912 107V104H22.8849V107H20.0912ZM24.7474 107V104H27.5412V107H24.7474ZM29.4036 107V104H32.1973V107H29.4036ZM34.0597 107V104H36.8535V107H34.0597ZM38.7159 107V104H41.5096V107H38.7159ZM43.372 107V104H46.1658V107H43.372ZM48.0283 107V104H50.8219V107H48.0283ZM52.6843 107V104H55.4781V107H52.6843ZM57.3406 107V104H60.1342V107H57.3406ZM60.1342 102H57.3406V99H60.1342V102ZM60.1342 97H57.3406V94H60.1342V97ZM60.1342 92H57.3406V89H60.1342V92ZM60.1342 87H57.3406V84H60.1342V87ZM60.1342 82H57.3406V79H60.1342V82ZM60.1342 77H57.3406V74H60.1342V77ZM60.1342 72H57.3406V69H60.1342V72ZM55.4781 69V72H52.6843V69H55.4781ZM50.8219 69V72H48.0283V69H50.8219ZM46.1658 69V72H43.372V69H46.1658ZM41.5096 69V72H38.7159V69H41.5096ZM36.8535 69V72H34.0597V69H36.8535ZM32.1973 69V72H29.4036V69H32.1973ZM27.5412 69V72H24.7474V69H27.5412ZM22.8849 69V72H20.0912V69H22.8849ZM18.2287 69V72H15.4351V69H18.2287ZM13.5727 69V72H10.7789V69H13.5727ZM8.91643 69V72H6.12279V69H8.91643ZM6.12279 74H8.91643V77H6.12279V74ZM6.12279 79H8.91643V82H6.12279V79ZM6.12279 84H8.91643V87H6.12279V84ZM6.12279 89H8.91643V92H6.12279V89ZM6.12279 94H8.91643V97H6.12279V94ZM6.12279 99H8.91643V102H6.12279V99ZM10.7789 102V99H13.5727V102H10.7789ZM15.4351 102V99H18.2287V102H15.4351ZM20.0912 102V99H22.8849V102H20.0912ZM24.7474 102V99H27.5412V102H24.7474ZM29.4036 102V99H32.1973V102H29.4036ZM34.0597 102V99H36.8535V102H34.0597ZM38.7159 102V99H41.5096V102H38.7159ZM43.372 102V99H46.1658V102H43.372ZM48.0283 102V99H50.8219V102H48.0283ZM52.6843 102V99H55.4781V102H52.6843ZM55.4781 97H52.6843V94H55.4781V97ZM55.4781 92H52.6843V89H55.4781V92ZM55.4781 87H52.6843V84H55.4781V87ZM55.4781 82H52.6843V79H55.4781V82ZM55.4781 77H52.6843V74H55.4781V77ZM50.8219 74V77H48.0283V74H50.8219ZM46.1658 74V77H43.372V74H46.1658ZM41.5096 74V77H38.7159V74H41.5096ZM36.8535 74V77H34.0597V74H36.8535ZM32.1973 74V77H29.4036V74H32.1973ZM27.5412 74V77H24.7474V74H27.5412ZM22.8849 74V77H20.0912V74H22.8849ZM18.2287 74V77H15.4351V74H18.2287ZM13.5727 74V77H10.7789V74H13.5727ZM10.7789 79H13.5727V82H10.7789V79ZM10.7789 84H13.5727V87H10.7789V84ZM10.7789 89H13.5727V92H10.7789V89ZM10.7789 94H13.5727V97H10.7789V94ZM15.4351 97V94H18.2287V97H15.4351ZM20.0912 97V94H22.8849V97H20.0912ZM24.7474 97V94H27.5412V97H24.7474ZM29.4036 97V94H32.1973V97H29.4036ZM34.0597 97V94H36.8535V97H34.0597ZM38.7159 97V94H41.5096V97H38.7159ZM43.372 97V94H46.1658V97H43.372ZM48.0283 97V94H50.8219V97H48.0283ZM50.8219 92H48.0283V89H50.8219V92ZM50.8219 87H48.0283V84H50.8219V87ZM50.8219 82H48.0283V79H50.8219V82ZM46.1658 79V82H43.372V79H46.1658ZM41.5096 79V82H38.7159V79H41.5096ZM36.8535 79V82H34.0597V79H36.8535ZM32.1973 79V82H29.4036V79H32.1973ZM27.5412 79V82H24.7474V79H27.5412ZM22.8849 79V82H20.0912V79H22.8849ZM18.2287 79V82H15.4351V79H18.2287ZM15.4351 84H18.2287V87H15.4351V84ZM15.4351 89H18.2287V92H15.4351V89ZM20.0912 92V89H22.8849V92H20.0912ZM24.7474 92V89H27.5412V92H24.7474ZM29.4036 92V89H32.1973V92H29.4036ZM34.0597 92V89H36.8535V92H34.0597ZM38.7159 92V89H41.5096V92H38.7159ZM43.372 92V89H46.1658V92H43.372ZM46.1658 87H43.372V84H46.1658V87ZM41.5096 84V87H38.7159V84H41.5096ZM36.8535 84V87H34.0597V84H36.8535ZM32.1973 84V87H29.4036V84H32.1973ZM27.5412 84V87H24.7474V84H27.5412ZM22.8849 84V87H20.0912V84H22.8849ZM57.3406 119V119.323C57.6853 119.217 58.0294 119.109 58.3728 119H57.3406ZM-5.05199 119.323V119H-6.08412C-5.74075 119.109 -5.39671 119.217 -5.05199 119.323ZM-9.70819 92V89H-53.3111C-52.3497 90.0185 -51.3713 91.0187 -50.3765 92H-9.70819ZM-7.84573 47V44H-5.05199V47H-7.84573ZM-3.18953 47V44H-0.395889V47H-3.18953ZM1.46657 47V44H4.26033V47H1.46657ZM6.12279 47V44H8.91643V47H6.12279ZM10.7789 47V44H13.5727V47H10.7789ZM15.4351 47V44H18.2287V47H15.4351ZM20.0912 47V44H22.8849V47H20.0912ZM24.7474 47V44H27.5412V47H24.7474ZM29.4036 47V44H32.1973V47H29.4036ZM34.0597 47V44H36.8535V47H34.0597ZM38.7159 47V44H41.5096V47H38.7159ZM43.372 47V44H46.1658V47H43.372ZM48.0283 47V44H50.8219V47H48.0283ZM52.6843 47V44H55.4781V47H52.6843ZM57.3406 47V44H60.1342V47H57.3406ZM61.9967 47V44H64.7904V47H61.9967ZM66.6529 47V44H69.4465V47H66.6529ZM71.309 47V44H74.1027V47H71.309ZM75.9652 47V44H78.7588V47H75.9652ZM80.6213 47V44H83.415V47H80.6213ZM85.2775 47V44H88.0712V47H85.2775ZM89.9337 47V44H92.7273V47H89.9337ZM92.7273 49V52H89.9337V49H92.7273ZM94.5898 49V52H97.3836V49H94.5898ZM94.5898 47V44H97.3836V47H94.5898ZM99.246 47V44H102.04V47H99.246ZM102.04 49V52H99.246V49H102.04ZM103.902 49V52H106.696V49H103.902ZM103.902 47V44H106.696V47H103.902ZM108.558 47L108.558 44H111.352L111.352 47H108.558ZM111.352 49V52H108.558V49H111.352ZM113.214 49V52H116.008V49H113.214ZM113.214 47L113.214 44H116.008L116.008 47H113.214ZM117.871 47L117.871 44H120.664L120.664 47H117.871ZM120.664 49V52H117.871V49H120.664ZM117.871 54H120.664V57H117.871V54ZM117.871 59H120.664V62H117.871V59ZM116.008 62V59H113.214V62H116.008ZM116.008 64V67H113.214V64H116.008ZM111.352 64V67H108.558V64H111.352ZM106.696 64V67H103.902V64H106.696ZM103.902 62H106.696V59H103.902V62ZM102.04 64V67H99.246V64H102.04ZM99.246 62H102.04V59H99.246V62ZM97.3836 64V67H94.5898V64H97.3836ZM94.5898 62H97.3836V59H94.5898V62ZM92.7273 64V67H89.9337V64H92.7273ZM89.9337 62H92.7273V59H89.9337V62ZM89.9337 57V54H92.7273V57H89.9337ZM94.5898 57V54H97.3836V57H94.5898ZM99.246 57V54H102.04V57H99.246ZM103.902 57V54H106.696V57H103.902ZM108.558 57V54H111.352V57H108.558ZM111.352 59V62H108.558V59H111.352ZM113.214 57H116.008V54H113.214V57ZM89.9337 69H92.7273V72H89.9337V69ZM89.9337 74H92.7273V77H89.9337V74ZM89.9337 79H92.7273V82H89.9337V79ZM89.9337 84H92.7273V87H89.9337V84ZM89.9337 89H92.7273V92H89.9337V89ZM89.9337 94H92.7273V97H89.9337V94ZM94.5898 92H97.3836V89H94.5898V92ZM94.5898 87V84H97.3836V87H94.5898ZM99.246 87H102.04V84H99.246V87ZM97.3836 82H94.5898V79H97.3836V82ZM99.246 79V82H102.04V79H99.246ZM97.3836 77H94.5898V74H97.3836V77ZM99.246 74V77H102.04V74H99.246ZM97.3836 72H94.5898V69H97.3836V72ZM99.246 69V72H102.04V69H99.246ZM103.902 69H106.696V72H103.902V69ZM103.902 74H106.696V77H103.902V74ZM103.902 79H106.696V82H103.902V79ZM108.558 77H111.352V74H108.558V77ZM108.558 72V69H111.352V72H108.558ZM113.214 72H116.008V69H113.214V72ZM122.527 47L122.527 44H125.32V47H122.527ZM125.32 42H122.527V39H125.32V42ZM125.32 37H122.527V34H125.32V37ZM125.32 32H122.527V29H125.32V32ZM127.183 29V32H129.977V29H127.183ZM125.32 27H122.527V24H125.32V27ZM127.183 24V27H129.977V24H127.183ZM125.32 22H122.527V19H125.32V22ZM127.183 19V22H129.977V19H127.183ZM125.32 17H122.527V14H125.32V17ZM127.183 14V17H129.977V14H127.183ZM125.32 12H122.527V9H125.32V12ZM127.183 9V12H129.977V9H127.183ZM125.32 7H122.527V4H125.32V7ZM127.183 4V7H129.977V4H127.183ZM125.32 2H122.527V-1H125.32V2ZM127.183 -1V2H129.977V-1H127.183ZM125.32 -3H122.527V-6H125.32V-3ZM127.183 -6V-3H129.977V-6H127.183ZM125.32 -8H122.527L122.527 -11H125.32V-8ZM127.183 -11V-8H129.977V-11H127.183ZM131.839 -11H134.633L134.633 -8H131.839L131.839 -11ZM120.664 -11L120.664 -8H117.871L117.871 -11H120.664ZM116.008 -11L116.008 -8H113.214L113.214 -11H116.008ZM111.352 -11L111.352 -8H108.558L108.558 -11H111.352ZM106.696 -11V-8H103.902V-11H106.696ZM102.04 -11V-8H99.246V-11H102.04ZM97.3836 -11V-8H94.5898V-11H97.3836ZM92.7273 -11V-8H89.9337V-11H92.7273ZM88.0713 -11V-8H85.2775V-11H88.0713ZM83.415 -11V-8H80.6213V-11H83.415ZM78.7588 -11V-8H75.9652V-11H78.7588ZM74.1027 -11V-8H71.309V-11H74.1027ZM69.4465 -11V-8H66.6529V-11H69.4465ZM64.7904 -11V-8H61.9967V-11H64.7904ZM60.1342 -11V-8H57.3406V-11H60.1342ZM55.4781 -11V-8H52.6844V-11H55.4781ZM50.8219 -11V-8H48.0283V-11H50.8219ZM46.1658 -11V-8H43.372V-11H46.1658ZM41.5096 -11V-8H38.716V-11H41.5096ZM36.8535 -11V-8H34.0597V-11H36.8535ZM32.1973 -11V-8H29.4036V-11H32.1973ZM27.5412 -11V-8H24.7474V-11H27.5412ZM22.885 -11V-8H20.0912V-11H22.885ZM18.2287 -11V-8H15.4351V-11H18.2287ZM13.5727 -11V-8H10.7789V-11H13.5727ZM8.91643 -11V-8H6.12279V-11H8.91643ZM4.26033 -11V-8H1.46657V-11H4.26033ZM-0.395889 -11V-8H-3.18953V-11H-0.395889ZM-5.05199 -11V-8H-7.84573V-11H-5.05199ZM-7.84573 -6H-5.05199V-3H-7.84573V-6ZM-7.84573 -1H-5.05199V2H-7.84573V-1ZM-7.84573 4H-5.05199V7H-7.84573V4ZM-7.84573 9H-5.05199V12H-7.84573V9ZM-7.84573 14H-5.05199V17H-7.84573V14ZM-7.84573 19H-5.05199V22H-7.84573V19ZM-7.84573 24H-5.05199V27H-7.84573V24ZM-7.84573 29H-5.05199V32H-7.84573V29ZM-7.84573 34H-5.05199V37H-7.84573V34ZM-7.84573 39H-5.05199V42H-7.84573V39ZM-3.18953 42V39H-0.395889V42H-3.18953ZM1.46657 42V39H4.26033V42H1.46657ZM6.12279 42V39H8.91643V42H6.12279ZM10.7789 42V39H13.5727V42H10.7789ZM15.4351 42V39H18.2287V42H15.4351ZM20.0912 42V39H22.8849V42H20.0912ZM24.7474 42V39H27.5412V42H24.7474ZM29.4036 42V39H32.1973V42H29.4036ZM34.0597 42V39H36.8535V42H34.0597ZM38.7159 42V39H41.5096V42H38.7159ZM43.372 42V39H46.1658V42H43.372ZM48.0283 42V39H50.8219V42H48.0283ZM52.6843 42V39H55.4781V42H52.6843ZM57.3406 42V39H60.1342V42H57.3406ZM61.9967 42V39H64.7904V42H61.9967ZM66.6529 42V39H69.4465V42H66.6529ZM71.309 42V39H74.1027V42H71.309ZM75.9652 42V39H78.7588V42H75.9652ZM80.6213 42V39H83.415V42H80.6213ZM85.2775 42V39H88.0712V42H85.2775ZM89.9337 42V39H92.7273V42H89.9337ZM94.5898 42V39H97.3836V42H94.5898ZM99.246 42V39H102.04V42H99.246ZM103.902 42V39H106.696V42H103.902ZM108.558 42V39H111.352V42H108.558ZM113.214 42V39H116.008V42H113.214ZM117.871 42V39H120.664V42H117.871ZM120.664 37H117.871V34H120.664V37ZM120.664 32H117.871V29H120.664V32ZM120.664 27H117.871V24H120.664V27ZM120.664 22H117.871V19H120.664V22ZM120.664 17H117.871V14H120.664V17ZM120.664 12H117.871V9H120.664V12ZM120.664 7H117.871V4H120.664V7ZM120.664 2H117.871V-1H120.664V2ZM120.664 -3H117.871V-6H120.664V-3ZM116.008 -6V-3H113.214V-6H116.008ZM111.352 -6V-3H108.558V-6H111.352ZM106.696 -6V-3H103.902V-6H106.696ZM102.04 -6V-3H99.246V-6H102.04ZM97.3836 -6V-3H94.5898V-6H97.3836ZM92.7273 -6V-3H89.9337V-6H92.7273ZM88.0713 -6V-3H85.2775V-6H88.0713ZM83.415 -6V-3H80.6213V-6H83.415ZM78.7588 -6V-3H75.9652V-6H78.7588ZM74.1027 -6V-3H71.309V-6H74.1027ZM69.4465 -6V-3H66.6529V-6H69.4465ZM64.7904 -6V-3H61.9967V-6H64.7904ZM60.1342 -6V-3H57.3406V-6H60.1342ZM55.4781 -6V-3H52.6844V-6H55.4781ZM50.8219 -6V-3H48.0283V-6H50.8219ZM46.1658 -6V-3H43.372V-6H46.1658ZM41.5096 -6V-3H38.716V-6H41.5096ZM36.8535 -6V-3H34.0597V-6H36.8535ZM32.1973 -6V-3H29.4036V-6H32.1973ZM27.5412 -6V-3H24.7474V-6H27.5412ZM22.885 -6V-3H20.0912V-6H22.885ZM18.2287 -6V-3H15.4351V-6H18.2287ZM13.5727 -6V-3H10.7789V-6H13.5727ZM8.91643 -6V-3H6.12279V-6H8.91643ZM4.26033 -6V-3H1.46657V-6H4.26033ZM-0.395889 -6V-3H-3.18953V-6H-0.395889ZM-3.18953 -1H-0.395889V2H-3.18953V-1ZM-3.18953 4H-0.395889V7H-3.18953V4ZM-3.18953 9H-0.395889V12H-3.18953V9ZM-3.18953 14H-0.395889V17H-3.18953V14ZM-3.18953 19H-0.395889V22H-3.18953V19ZM-3.18953 24H-0.395889V27H-3.18953V24ZM-3.18953 29H-0.395889V32H-3.18953V29ZM-3.18953 34H-0.395889V37H-3.18953V34ZM1.46657 37V34H4.26033V37H1.46657ZM6.12279 37V34H8.91643V37H6.12279ZM10.7789 37V34H13.5727V37H10.7789ZM15.4351 37V34H18.2287V37H15.4351ZM20.0912 37V34H22.8849V37H20.0912ZM24.7474 37V34H27.5412V37H24.7474ZM29.4036 37V34H32.1973V37H29.4036ZM34.0597 37V34H36.8535V37H34.0597ZM38.7159 37V34H41.5096V37H38.7159ZM43.372 37V34H46.1658V37H43.372ZM48.0283 37V34H50.8219V37H48.0283ZM52.6843 37V34H55.4781V37H52.6843ZM57.3406 37V34H60.1342V37H57.3406ZM61.9967 37V34H64.7904V37H61.9967ZM66.6529 37V34H69.4465V37H66.6529ZM71.309 37V34H74.1027V37H71.309ZM75.9652 37V34H78.7588V37H75.9652ZM80.6213 37V34H83.415V37H80.6213ZM85.2775 37V34H88.0712V37H85.2775ZM89.9337 37V34H92.7273V37H89.9337ZM94.5898 37V34H97.3836V37H94.5898ZM99.246 37V34H102.04V37H99.246ZM103.902 37V34H106.696V37H103.902ZM108.558 37V34H111.352V37H108.558ZM113.214 37V34H116.008V37H113.214ZM116.008 32H113.214V29H116.008V32ZM116.008 27H113.214V24H116.008V27ZM116.008 22H113.214V19H116.008V22ZM116.008 17H113.214V14H116.008V17ZM116.008 12H113.214V9H116.008V12ZM116.008 7H113.214V4H116.008V7ZM116.008 2H113.214V-1H116.008V2ZM111.352 -1V2H108.558V-1H111.352ZM106.696 -1V2H103.902V-1H106.696ZM102.04 -1V2H99.246V-1H102.04ZM97.3836 -1V2H94.5898V-1H97.3836ZM92.7273 -1V2H89.9337V-1H92.7273ZM88.0713 -1V2H85.2775V-1H88.0713ZM83.415 -1V2H80.6213V-1H83.415ZM78.7588 -1V2H75.9652V-1H78.7588ZM74.1027 -1V2H71.309V-1H74.1027ZM69.4465 -1V2H66.6529V-1H69.4465ZM64.7904 -1V2H61.9967V-1H64.7904ZM60.1342 -1V2H57.3406V-1H60.1342ZM55.4781 -1V2H52.6844V-1H55.4781ZM50.8219 -1V2H48.0283V-1H50.8219ZM46.1658 -1V2H43.372V-1H46.1658ZM41.5096 -1V2H38.716V-1H41.5096ZM36.8535 -1V2H34.0597V-1H36.8535ZM32.1973 -1V2H29.4036V-1H32.1973ZM27.5412 -1V2H24.7474V-1H27.5412ZM22.885 -1V2H20.0912V-1H22.885ZM18.2287 -1V2H15.4351V-1H18.2287ZM13.5727 -1V2H10.7789V-1H13.5727ZM8.91643 -1V2H6.12279V-1H8.91643ZM4.26033 -1V2H1.46657V-1H4.26033ZM1.46657 4H4.26033V7H1.46657V4ZM1.46657 9H4.26033V12H1.46657V9ZM1.46657 14H4.26033V17H1.46657V14ZM1.46657 19H4.26033V22H1.46657V19ZM1.46657 24H4.26033V27H1.46657V24ZM1.46657 29H4.26033V32H1.46657V29ZM6.12279 32V29H8.91643V32H6.12279ZM10.7789 32V29H13.5727V32H10.7789ZM15.4351 32V29H18.2287V32H15.4351ZM20.0912 32V29H22.8849V32H20.0912ZM24.7474 32V29H27.5412V32H24.7474ZM29.4036 32V29H32.1973V32H29.4036ZM34.0597 32V29H36.8535V32H34.0597ZM38.7159 32V29H41.5096V32H38.7159ZM43.372 32V29H46.1658V32H43.372ZM48.0283 32V29H50.8219V32H48.0283ZM52.6843 32V29H55.4781V32H52.6843ZM57.3406 32V29H60.1342V32H57.3406ZM61.9967 32V29H64.7904V32H61.9967ZM66.6529 32V29H69.4465V32H66.6529ZM71.309 32V29H74.1027V32H71.309ZM75.9652 32V29H78.7588V32H75.9652ZM80.6213 32V29H83.415V32H80.6213ZM85.2775 32V29H88.0712V32H85.2775ZM89.9337 32V29H92.7273V32H89.9337ZM94.5898 32V29H97.3836V32H94.5898ZM99.246 32V29H102.04V32H99.246ZM103.902 32V29H106.696V32H103.902ZM108.558 32V29H111.352V32H108.558ZM111.352 27H108.558V24H111.352V27ZM111.352 22H108.558V19H111.352V22ZM111.352 17H108.558V14H111.352V17ZM111.352 12H108.558V9H111.352V12ZM111.352 7H108.558V4H111.352V7ZM106.696 4V7H103.902V4H106.696ZM102.04 4V7H99.246V4H102.04ZM97.3836 4V7H94.5898V4H97.3836ZM92.7273 4V7H89.9337V4H92.7273ZM88.0713 4V7H85.2775V4H88.0713ZM83.415 4V7H80.6213V4H83.415ZM78.7588 4V7H75.9652V4H78.7588ZM74.1027 4V7H71.309V4H74.1027ZM69.4465 4V7H66.6529V4H69.4465ZM64.7904 4V7H61.9967V4H64.7904ZM60.1342 4V7H57.3406V4H60.1342ZM55.4781 4V7H52.6844V4H55.4781ZM50.8219 4V7H48.0283V4H50.8219ZM46.1658 4V7H43.372V4H46.1658ZM41.5096 4V7H38.716V4H41.5096ZM36.8535 4V7H34.0597V4H36.8535ZM32.1973 4V7H29.4036V4H32.1973ZM27.5412 4V7H24.7474V4H27.5412ZM22.885 4V7H20.0912V4H22.885ZM18.2287 4V7H15.4351V4H18.2287ZM13.5727 4V7H10.7789V4H13.5727ZM8.91643 4V7H6.12279V4H8.91643ZM6.12279 9H8.91643V12H6.12279V9ZM6.12279 14H8.91643V17H6.12279V14ZM6.12279 19H8.91643V22H6.12279V19ZM6.12279 24H8.91643V27H6.12279V24ZM10.7789 27V24H13.5727V27H10.7789ZM15.4351 27V24H18.2287V27H15.4351ZM20.0912 27V24H22.8849V27H20.0912ZM24.7474 27V24H27.5412V27H24.7474ZM29.4036 27V24H32.1973V27H29.4036ZM34.0597 27V24H36.8535V27H34.0597ZM38.7159 27V24H41.5096V27H38.7159ZM43.372 27V24H46.1658V27H43.372ZM48.0283 27V24H50.8219V27H48.0283ZM52.6843 27V24H55.4781V27H52.6843ZM57.3406 27V24H60.1342V27H57.3406ZM61.9967 27V24H64.7904V27H61.9967ZM66.6529 27V24H69.4465V27H66.6529ZM71.309 27V24H74.1027V27H71.309ZM75.9652 27V24H78.7588V27H75.9652ZM80.6213 27V24H83.415V27H80.6213ZM85.2775 27V24H88.0712V27H85.2775ZM89.9337 27V24H92.7273V27H89.9337ZM94.5898 27V24H97.3836V27H94.5898ZM99.246 27V24H102.04V27H99.246ZM103.902 27V24H106.696V27H103.902ZM106.696 22H103.902V19H106.696V22ZM106.696 17H103.902V14H106.696V17ZM106.696 12H103.902V9H106.696V12ZM102.04 9V12H99.246V9H102.04ZM97.3836 9V12H94.5898V9H97.3836ZM92.7273 9V12H89.9337V9H92.7273ZM88.0713 9V12H85.2775V9H88.0713ZM83.415 9V12H80.6213V9H83.415ZM78.7588 9V12H75.9652V9H78.7588ZM74.1027 9V12H71.309V9H74.1027ZM69.4465 9V12H66.6529V9H69.4465ZM64.7904 9V12H61.9967V9H64.7904ZM60.1342 9V12H57.3406V9H60.1342ZM55.4781 9V12H52.6844V9H55.4781ZM50.8219 9V12H48.0283V9H50.8219ZM46.1658 9V12H43.372V9H46.1658ZM41.5096 9V12H38.716V9H41.5096ZM36.8535 9V12H34.0597V9H36.8535ZM32.1973 9V12H29.4036V9H32.1973ZM27.5412 9V12H24.7474V9H27.5412ZM22.885 9V12H20.0912V9H22.885ZM18.2287 9V12H15.4351V9H18.2287ZM13.5727 9V12H10.7789V9H13.5727ZM10.7789 14H13.5727V17H10.7789V14ZM10.7789 19H13.5727V22H10.7789V19ZM15.4351 22V19H18.2287V22H15.4351ZM20.0912 22V19H22.8849V22H20.0912ZM24.7474 22V19H27.5412V22H24.7474ZM29.4036 22V19H32.1973V22H29.4036ZM34.0597 22V19H36.8535V22H34.0597ZM38.7159 22V19H41.5096V22H38.7159ZM43.372 22V19H46.1658V22H43.372ZM48.0283 22V19H50.8219V22H48.0283ZM52.6843 22V19H55.4781V22H52.6843ZM57.3406 22V19H60.1342V22H57.3406ZM61.9967 22V19H64.7904V22H61.9967ZM66.6529 22V19H69.4465V22H66.6529ZM71.309 22V19H74.1027V22H71.309ZM75.9652 22V19H78.7588V22H75.9652ZM80.6213 22V19H83.415V22H80.6213ZM85.2775 22V19H88.0712V22H85.2775ZM89.9337 22V19H92.7273V22H89.9337ZM94.5898 22V19H97.3836V22H94.5898ZM99.246 22V19H102.04V22H99.246ZM102.04 17H99.246V14H102.04V17ZM97.3836 14V17H94.5898V14H97.3836ZM92.7273 14V17H89.9337V14H92.7273ZM88.0713 14V17H85.2775V14H88.0713ZM83.415 14V17H80.6213V14H83.415ZM78.7588 14V17H75.9652V14H78.7588ZM74.1027 14V17H71.309V14H74.1027ZM69.4465 14V17H66.6529V14H69.4465ZM64.7904 14V17H61.9967V14H64.7904ZM60.1342 14V17H57.3406V14H60.1342ZM55.4781 14V17H52.6844V14H55.4781ZM50.8219 14V17H48.0283V14H50.8219ZM46.1658 14V17H43.372V14H46.1658ZM41.5096 14V17H38.716V14H41.5096ZM36.8535 14V17H34.0597V14H36.8535ZM32.1973 14V17H29.4036V14H32.1973ZM27.5412 14V17H24.7474V14H27.5412ZM22.885 14V17H20.0912V14H22.885ZM18.2287 14V17H15.4351V14H18.2287ZM129.977 34H127.183V37H129.977V34ZM88.0712 99H85.2775V102H88.0712V99Z" fill="url(#paint8_radial_6870_109369)"/>
<path fill-rule="evenodd" clip-rule="evenodd" d="M271.524 116.003L271.524 115H274.318V118H271.547C271.534 117.336 271.527 116.67 271.524 116.003ZM274.318 120H271.6C271.634 121.003 271.679 122.003 271.736 123H274.318V120ZM276.181 123V120H278.974V123H276.181ZM274.318 125H271.864C271.936 126.003 272.02 127.004 272.115 128H274.318V125ZM276.181 128V125H278.974V128H276.181ZM274.318 130H272.321C272.432 131.004 272.555 132.004 272.688 133H274.318L274.318 130ZM276.181 133V130H278.974V133H276.181ZM274.318 135H272.973C273.124 136.004 273.286 137.004 273.46 138H274.318L274.318 135ZM276.181 138L276.181 135H278.974L278.974 138H276.181ZM274.318 140H273.825C273.981 140.822 274.146 141.641 274.318 142.457L274.318 140ZM276.181 143V140H278.974V143H276.181ZM276.181 148L276.181 145H278.974L278.974 148H276.181ZM276.181 150.112V150H278.974V153H277.015C276.726 152.042 276.448 151.08 276.181 150.112ZM278.974 155H277.637C277.959 156.006 278.293 157.006 278.638 158H278.974V155ZM280.837 158V155H283.63V158H280.837ZM280.837 163V160H283.63V163H280.837ZM283.63 165H281.308C281.727 166.007 282.159 167.007 282.602 168H283.63L283.63 165ZM285.493 168L285.493 165H288.287V168H285.493ZM283.63 170H283.517C283.555 170.08 283.593 170.161 283.63 170.241V170ZM285.493 173V170H288.287V173H285.493ZM288.287 175H285.996C286.525 176.009 287.067 177.009 287.621 178H288.287V175ZM290.149 178V175H292.943V178H290.149ZM290.149 182.309V180H292.943V183H290.576C290.433 182.77 290.291 182.54 290.149 182.309ZM292.943 185H291.85C292.21 185.553 292.574 186.104 292.943 186.65L292.943 185ZM294.805 188L294.805 185H297.599L297.599 188H294.805ZM297.599 190H295.283C296.016 191.013 296.764 192.013 297.526 193H297.599V190ZM299.461 193V190H302.255V193H299.461ZM299.461 195.441V195H302.255V198H301.605C300.879 197.158 300.165 196.305 299.461 195.441ZM304.118 200.824V200H306.911V203.762C305.964 202.8 305.033 201.82 304.118 200.824ZM308.774 205.613C309.691 206.505 310.623 207.381 311.567 208.24V200H308.774V205.613ZM308.774 198H311.567V195H308.774V198ZM308.774 193H311.567V190H308.774V193ZM306.911 190V193H304.118V190H306.911ZM308.774 188H311.567V185H308.774V188ZM306.911 185V188H304.118V185H306.911ZM308.774 183H311.567V180H308.774V183ZM306.911 180V183H304.118V180H306.911ZM308.774 178H311.567V175H308.774V178ZM306.911 175V178H304.118V175H306.911ZM308.774 173H311.567V170H308.774V173ZM306.911 170V173H304.118V170H306.911ZM308.774 168H311.567V165H308.774V168ZM306.911 165V168H304.118V165H306.911ZM308.774 163H311.567V160H308.774V163ZM306.911 160V163H304.118V160H306.911ZM308.774 158H311.567V155H308.774V158ZM306.911 155V158H304.118V155H306.911ZM308.774 153H311.567V150H308.774V153ZM306.911 150V153H304.118V150H306.911ZM308.774 148H311.567V145H308.774V148ZM306.911 145V148H304.118V145H306.911ZM308.774 143H311.567L311.567 140H308.774L308.774 143ZM306.911 140L306.911 143H304.118L304.118 140H306.911ZM308.774 138H311.567V135H308.774V138ZM306.911 135V138H304.118V135H306.911ZM308.774 133H311.567V130H308.774V133ZM306.911 130V133H304.118V130H306.911ZM308.774 128H311.567V125H308.774V128ZM306.911 125V128H304.118V125H306.911ZM308.774 123H311.567V120H308.774V123ZM306.911 120V123H304.118V120H306.911ZM308.774 118H311.567V115H308.774V118ZM306.911 115V118H304.118V115H306.911ZM308.774 113H311.567V110H308.774V113ZM306.911 110V113H304.118V110H306.911ZM308.774 108H311.567V105H308.774V108ZM306.911 105V108H304.118V105H306.911ZM308.774 103H311.567V100H308.774V103ZM306.911 100V103H304.118V100H306.911ZM308.774 98H311.567V95H308.774V98ZM306.911 95V98H304.118V95H306.911ZM308.774 93H311.567V90H308.774V93ZM306.911 90V93H304.118V90H306.911ZM308.774 88H311.567V85H308.774V88ZM306.911 85V88H304.118V85H306.911ZM308.774 83H311.567V80H308.774V83ZM306.911 80V83H304.118V80H306.911ZM308.774 78H311.567V75H308.774V78ZM306.911 75V78H304.118V75H306.911ZM308.774 73H311.567V70H308.774V73ZM306.911 70V73H304.118V70H306.911ZM308.774 68H311.567V65H308.774V68ZM306.911 65V68H304.118V65H306.911ZM308.774 63H311.567V60H308.774V63ZM306.911 60V63H304.118V60H306.911ZM308.774 58H311.567V55H308.774V58ZM306.911 55V58H304.118V55H306.911ZM308.774 53H311.567V50H308.774V53ZM306.911 50V53H304.118V50H306.911ZM308.774 48H311.567V45H308.774V48ZM306.911 45V48H304.118V45H306.911ZM308.774 43H311.567V40H308.774V43ZM306.911 40V43H304.118V40H306.911ZM308.774 38H311.567V35H308.774V38ZM306.911 35V38H304.117V35H306.911ZM308.774 33H311.567V30H308.774V33ZM306.911 30V33H304.117V30.1761C304.171 30.1173 304.225 30.0586 304.28 30H306.911ZM308.774 28H311.567V22.7596C310.623 23.6191 309.691 24.495 308.774 25.3868V28ZM306.911 27.2377V28H306.168C306.415 27.7447 306.662 27.4906 306.911 27.2377ZM313.43 21.1012V28H316.224V18.7439C315.281 19.5143 314.349 20.3002 313.43 21.1012ZM318.086 17.2543V28H320.88V15.1358C319.938 15.8272 319.007 16.5335 318.086 17.2543ZM322.742 13.797V28H325.536V11.8935C324.595 12.5137 323.664 13.1483 322.742 13.797ZM327.398 10.6914V28H330.192V8.98421C329.253 9.53944 328.321 10.1086 327.398 10.6914ZM332.054 7.90774V28H334.848V6.38198C333.91 6.87709 332.978 7.38576 332.054 7.90774ZM336.711 5.42221V28H339.504V4.06579C338.566 4.50475 337.635 4.95697 336.711 5.42221ZM341.367 3.21546V28H344.16V2.0185C343.223 2.40455 342.292 2.8036 341.367 3.21546ZM346.023 1.27163V28H348.817V0.22603C347.88 0.561831 346.949 0.910429 346.023 1.27163ZM350.679 -0.422295V28H353.473V-1.32328C352.537 -1.03552 351.605 -0.735128 350.679 -0.422295ZM355.335 -1.87713V28H358.129V-2.63906C357.193 -2.39752 356.262 -2.14348 355.335 -1.87713ZM359.991 -3.10184V28H362.785V-3.72933C361.85 -3.53249 360.918 -3.32327 359.991 -3.10184ZM364.648 -4.10382V28H367.441V-4.6007C366.506 -4.44731 365.575 -4.28163 364.648 -4.10382ZM369.304 -4.8892V28H372.097V-5.25857C371.163 -5.14762 370.231 -5.02445 369.304 -4.8892ZM373.96 -5.46297V28H376.754V-5.70737C375.819 -5.63803 374.888 -5.55652 373.96 -5.46297ZM378.616 -5.82916V28H381.41V-5.95059C380.476 -5.92222 379.544 -5.8817 378.616 -5.82916ZM383.272 -5.99094V28H386.066V-5.99092C385.601 -5.99697 385.135 -6 384.668 -6C384.202 -6 383.737 -5.99698 383.272 -5.99094ZM387.928 -5.95053V28H390.722V-5.82905C389.794 -5.88161 388.863 -5.92215 387.928 -5.95053ZM392.585 -5.70723V28H395.378V-5.46278C394.45 -5.55635 393.519 -5.63788 392.585 -5.70723ZM397.241 -5.25835V28H400.034V-4.88893C399.107 -5.02419 398.175 -5.14739 397.241 -5.25835ZM401.897 -4.60039V28H404.691V-4.10347C403.763 -4.2813 402.832 -4.44699 401.897 -4.60039ZM406.553 -3.72895V28H409.347V-3.1014C408.42 -3.32285 407.488 -3.53209 406.553 -3.72895ZM411.209 -2.6386V28H414.003V-1.87662C413.076 -2.14298 412.145 -2.39703 411.209 -2.6386ZM415.865 -1.32272V28H418.659V-0.421667C417.733 -0.734526 416.802 -1.03494 415.865 -1.32272ZM420.522 0.226697V28H463.169C451.186 15.601 436.664 6.01362 420.522 0.226697ZM418.659 30H415.865V33H418.659V30ZM420.522 33V30H465.057C485.307 51.9537 497.813 82.1585 497.813 115.5C497.813 169.146 465.436 214.671 420.522 230.773V200H465.22V198H420.522V195H465.22V193H420.522V190H465.22V188H420.522V185H465.22V183H420.522V180H465.22V178H420.522V175H465.22V173H420.522V170H465.22V168H420.522V165H465.22V163H420.522V160H465.22V158H420.522V155H465.22V153H420.522V150H465.22V148H420.522V145H465.22V143H420.522L420.522 140H465.22V138H420.522V135H465.22V133H420.522V130H465.22V128H420.522V125H465.22V123H420.522V120H465.22V118H420.522V115H465.22V113H420.522V110H465.22V108H420.522V105H465.22V103H420.522V100H465.22V98H420.522V95H465.22V93H420.522V90H465.22V88H420.522V85H465.22V83H420.522V80H465.22V78H420.522V75H465.22V73H420.522V70H465.22V68H420.522V65H465.22V63H420.522V60H465.22V58H420.522V55H465.22V53H420.522V50H465.22V48H420.522V45H465.22V43H420.522V40H465.22V38H420.522V35H465.22V33H420.522ZM418.659 35H415.865V38H418.659V35ZM418.659 40H415.865V43H418.659V40ZM418.659 45H415.865V48H418.659V45ZM418.659 50H415.865V53H418.659V50ZM418.659 55H415.865V58H418.659V55ZM418.659 60H415.865V63H418.659V60ZM418.659 65H415.865V68H418.659V65ZM418.659 70H415.865V73H418.659V70ZM418.659 75H415.865V78H418.659V75ZM418.659 80H415.865V83H418.659V80ZM418.659 85H415.865V88H418.659V85ZM418.659 90H415.865V93H418.659V90ZM418.659 95H415.865V98H418.659V95ZM418.659 100H415.865V103H418.659V100ZM418.659 105H415.865V108H418.659V105ZM418.659 110H415.865V113H418.659V110ZM418.659 115H415.865V118H418.659V115ZM418.659 120H415.865V123H418.659V120ZM418.659 125H415.865V128H418.659V125ZM418.659 130H415.865V133H418.659V130ZM418.659 135H415.865V138H418.659V135ZM418.659 140H415.865L415.865 143H418.659L418.659 140ZM418.659 145H415.865V148H418.659V145ZM418.659 150H415.865V153H418.659V150ZM418.659 155H415.865V158H418.659V155ZM418.659 160H415.865V163H418.659V160ZM418.659 165H415.865V168H418.659V165ZM418.659 170H415.865V173H418.659V170ZM418.659 175H415.865V178H418.659V175ZM418.659 180H415.865V183H418.659V180ZM418.659 185H415.865V188H418.659V185ZM418.659 190H415.865V193H418.659V190ZM418.659 195H415.865V198H418.659V195ZM418.659 200H415.865V232.323C416.802 232.035 417.733 231.735 418.659 231.422V200ZM414.003 232.877V200H411.209V233.639C412.145 233.397 413.076 233.143 414.003 232.877ZM409.347 234.101V200H406.553V234.729C407.488 234.532 408.42 234.323 409.347 234.101ZM404.691 235.103V200H401.897V235.6C402.832 235.447 403.763 235.281 404.691 235.103ZM400.034 235.889V200H397.241L397.241 236.258C398.175 236.147 399.107 236.024 400.034 235.889ZM395.378 236.463L395.378 200H392.585L392.585 236.707C393.519 236.638 394.45 236.556 395.378 236.463ZM390.722 236.829L390.722 200H387.928L387.928 236.951C388.863 236.922 389.794 236.882 390.722 236.829ZM386.066 236.991L386.066 200H383.272L383.272 236.991C383.737 236.997 384.202 237 384.668 237C385.135 237 385.601 236.997 386.066 236.991ZM381.41 236.951L381.41 200H378.616L378.616 236.829C379.544 236.882 380.476 236.922 381.41 236.951ZM376.754 236.707L376.754 200H373.96L373.96 236.463C374.888 236.557 375.819 236.638 376.754 236.707ZM372.097 236.259L372.097 200H369.304L369.304 235.889C370.232 236.024 371.163 236.148 372.097 236.259ZM367.441 235.601L367.441 200H364.648L364.648 235.104C365.575 235.282 366.506 235.447 367.441 235.601ZM362.785 234.729L362.785 200H359.991L359.991 234.102C360.918 234.323 361.85 234.533 362.785 234.729ZM358.129 233.639L358.129 200H355.335L355.335 232.877C356.262 233.143 357.193 233.398 358.129 233.639ZM353.473 232.323L353.473 200H350.679L350.679 231.422C351.605 231.735 352.537 232.036 353.473 232.323ZM348.817 230.774L348.817 200H346.023L346.023 229.728C346.949 230.09 347.88 230.438 348.817 230.774ZM344.16 228.982L344.16 200H341.367L341.367 227.785C342.292 228.196 343.223 228.595 344.16 228.982ZM339.504 226.934L339.504 200H336.711L336.711 225.578C337.635 226.043 338.566 226.495 339.504 226.934ZM334.848 224.618V200H332.054V223.092C332.978 223.614 333.91 224.123 334.848 224.618ZM330.192 222.016V200H327.398V220.309C328.321 220.891 329.253 221.461 330.192 222.016ZM325.536 219.107V200H322.742V217.203C323.664 217.852 324.595 218.486 325.536 219.107ZM320.88 215.864V200H318.086V213.746C319.007 214.467 319.938 215.173 320.88 215.864ZM316.224 212.256V200H313.43V209.899C314.349 210.7 315.281 211.486 316.224 212.256ZM313.43 198H316.224V195H313.43V198ZM313.43 193H316.224V190H313.43V193ZM313.43 188H316.224V185H313.43V188ZM313.43 183H316.224V180H313.43V183ZM313.43 178H316.224V175H313.43V178ZM313.43 173H316.224V170H313.43V173ZM313.43 168H316.224V165H313.43V168ZM313.43 163H316.224V160H313.43V163ZM313.43 158H316.224V155H313.43V158ZM313.43 153H316.224V150H313.43V153ZM313.43 148H316.224V145H313.43V148ZM313.43 143H316.224L316.224 140H313.43L313.43 143ZM313.43 138H316.224V135H313.43V138ZM313.43 133H316.224V130H313.43V133ZM313.43 128H316.224V125H313.43V128ZM313.43 123H316.224V120H313.43V123ZM313.43 118H316.224V115H313.43V118ZM313.43 113H316.224V110H313.43V113ZM313.43 108H316.224V105H313.43V108ZM313.43 103H316.224V100H313.43V103ZM313.43 98H316.224V95H313.43V98ZM313.43 93H316.224V90H313.43V93ZM313.43 88H316.224V85H313.43V88ZM313.43 83H316.224V80H313.43V83ZM313.43 78H316.224V75H313.43V78ZM313.43 73H316.224V70H313.43V73ZM313.43 68H316.224V65H313.43V68ZM313.43 63H316.224V60H313.43V63ZM313.43 58H316.224V55H313.43V58ZM313.43 53H316.224V50H313.43V53ZM313.43 48H316.224V45H313.43V48ZM313.43 43H316.224V40H313.43V43ZM313.43 38H316.224V35H313.43V38ZM313.43 33H316.224V30H313.43V33ZM318.086 30V33H320.88V30H318.086ZM322.742 30V33H325.536V30H322.742ZM327.398 30V33H330.192V30H327.398ZM332.054 30V33H334.848V30H332.054ZM336.711 30V33H339.504V30H336.711ZM341.367 30V33H344.16V30H341.367ZM346.023 30V33H348.817V30H346.023ZM350.679 30V33H353.473V30H350.679ZM355.335 30V33H358.129V30H355.335ZM359.991 30V33H362.785V30H359.991ZM364.648 30V33H367.441V30H364.648ZM369.304 30V33H372.097V30H369.304ZM373.96 30V33H376.754V30H373.96ZM378.616 30V33H381.41V30H378.616ZM383.272 30V33H386.066V30H383.272ZM387.928 30V33H390.722V30H387.928ZM392.585 30V33H395.378V30H392.585ZM397.241 30V33H400.034V30H397.241ZM401.897 30V33H404.691V30H401.897ZM406.553 30V33H409.347V30H406.553ZM411.209 30V33H414.003V30H411.209ZM414.003 35H411.209V38H414.003V35ZM414.003 40H411.209V43H414.003V40ZM414.003 45H411.209V48H414.003V45ZM414.003 50H411.209V53H414.003V50ZM414.003 55H411.209V58H414.003V55ZM414.003 60H411.209V63H414.003V60ZM414.003 65H411.209V68H414.003V65ZM414.003 70H411.209V73H414.003V70ZM414.003 75H411.209V78H414.003V75ZM414.003 80H411.209V83H414.003V80ZM414.003 85H411.209V88H414.003V85ZM414.003 90H411.209V93H414.003V90ZM414.003 95H411.209V98H414.003V95ZM414.003 100H411.209V103H414.003V100ZM414.003 105H411.209V108H414.003V105ZM414.003 110H411.209V113H414.003V110ZM414.003 115H411.209V118H414.003V115ZM414.003 120H411.209V123H414.003V120ZM414.003 125H411.209V128H414.003V125ZM414.003 130H411.209V133H414.003V130ZM414.003 135H411.209V138H414.003V135ZM414.003 140H411.209L411.209 143H414.003L414.003 140ZM414.003 145H411.209V148H414.003V145ZM414.003 150H411.209V153H414.003V150ZM414.003 155H411.209V158H414.003V155ZM414.003 160H411.209V163H414.003V160ZM414.003 165H411.209V168H414.003V165ZM414.003 170H411.209V173H414.003V170ZM414.003 175H411.209V178H414.003V175ZM414.003 180H411.209V183H414.003V180ZM414.003 185H411.209V188H414.003V185ZM414.003 190H411.209V193H414.003V190ZM414.003 195H411.209V198H414.003V195ZM409.347 198V195H406.553V198H409.347ZM404.691 198V195H401.897V198H404.691ZM400.034 198V195H397.241V198H400.034ZM395.378 198V195H392.585V198H395.378ZM390.722 198V195H387.928V198H390.722ZM386.066 198V195H383.272V198H386.066ZM381.41 198V195H378.616V198H381.41ZM376.754 198V195H373.96V198H376.754ZM372.097 198V195H369.304V198H372.097ZM367.441 198V195H364.648V198H367.441ZM362.785 198V195H359.991V198H362.785ZM358.129 198V195H355.335V198H358.129ZM353.473 198V195H350.679V198H353.473ZM348.817 198V195H346.023V198H348.817ZM344.16 198V195H341.367V198H344.16ZM339.504 198V195H336.711V198H339.504ZM334.848 198V195H332.054V198H334.848ZM330.192 198V195H327.398V198H330.192ZM325.536 198V195H322.742V198H325.536ZM320.88 198V195H318.086V198H320.88ZM318.086 193H320.88V190H318.086V193ZM318.086 188H320.88V185H318.086V188ZM318.086 183H320.88V180H318.086V183ZM318.086 178H320.88V175H318.086V178ZM318.086 173H320.88V170H318.086V173ZM318.086 168H320.88V165H318.086V168ZM318.086 163H320.88V160H318.086V163ZM318.086 158H320.88V155H318.086V158ZM318.086 153H320.88V150H318.086V153ZM318.086 148H320.88V145H318.086V148ZM318.086 143H320.88L320.88 140H318.086L318.086 143ZM318.086 138H320.88V135H318.086V138ZM318.086 133H320.88V130H318.086V133ZM318.086 128H320.88V125H318.086V128ZM318.086 123H320.88V120H318.086V123ZM318.086 118H320.88V115H318.086V118ZM318.086 113H320.88V110H318.086V113ZM318.086 108H320.88V105H318.086V108ZM318.086 103H320.88V100H318.086V103ZM318.086 98H320.88V95H318.086V98ZM318.086 93H320.88V90H318.086V93ZM318.086 88H320.88V85H318.086V88ZM318.086 83H320.88V80H318.086V83ZM318.086 78H320.88V75H318.086V78ZM318.086 73H320.88V70H318.086V73ZM318.086 68H320.88V65H318.086V68ZM318.086 63H320.88V60H318.086V63ZM318.086 58H320.88V55H318.086V58ZM318.086 53H320.88V50H318.086V53ZM318.086 48H320.88V45H318.086V48ZM318.086 43H320.88V40H318.086V43ZM318.086 38H320.88V35H318.086V38ZM322.742 35V38H325.536V35H322.742ZM327.398 35V38H330.192V35H327.398ZM332.054 35V38H334.848V35H332.054ZM336.711 35V38H339.504V35H336.711ZM341.367 35V38H344.16V35H341.367ZM346.023 35V38H348.817V35H346.023ZM350.679 35V38H353.473V35H350.679ZM355.335 35V38H358.129V35H355.335ZM359.991 35V38H362.785V35H359.991ZM364.648 35V38H367.441V35H364.648ZM369.304 35V38H372.097V35H369.304ZM373.96 35V38H376.754V35H373.96ZM378.616 35V38H381.41V35H378.616ZM383.272 35V38H386.066V35H383.272ZM387.928 35V38H390.722V35H387.928ZM392.585 35V38H395.378V35H392.585ZM397.241 35V38H400.034V35H397.241ZM401.897 35V38H404.691V35H401.897ZM406.553 35V38H409.347V35H406.553ZM409.347 40H406.553V43H409.347V40ZM409.347 45H406.553V48H409.347V45ZM409.347 50H406.553V53H409.347V50ZM409.347 55H406.553V58H409.347V55ZM409.347 60H406.553V63H409.347V60ZM409.347 65H406.553V68H409.347V65ZM409.347 70H406.553V73H409.347V70ZM409.347 75H406.553V78H409.347V75ZM409.347 80H406.553V83H409.347V80ZM409.347 85H406.553V88H409.347V85ZM409.347 90H406.553V93H409.347V90ZM409.347 95H406.553V98H409.347V95ZM409.347 100H406.553V103H409.347V100ZM409.347 105H406.553V108H409.347V105ZM409.347 110H406.553V113H409.347V110ZM409.347 115H406.553V118H409.347V115ZM409.347 120H406.553V123H409.347V120ZM409.347 125H406.553V128H409.347V125ZM409.347 130H406.553V133H409.347V130ZM409.347 135H406.553V138H409.347V135ZM409.347 140H406.553L406.553 143H409.347L409.347 140ZM409.347 145H406.553V148H409.347V145ZM409.347 150H406.553V153H409.347V150ZM409.347 155H406.553V158H409.347V155ZM409.347 160H406.553V163H409.347V160ZM409.347 165H406.553V168H409.347V165ZM409.347 170H406.553V173H409.347V170ZM409.347 175H406.553V178H409.347V175ZM409.347 180H406.553V183H409.347V180ZM409.347 185H406.553V188H409.347V185ZM409.347 190H406.553V193H409.347V190ZM404.691 193V190H401.897V193H404.691ZM400.034 193V190H397.241V193H400.034ZM395.378 193V190H392.585V193H395.378ZM390.722 193V190H387.928V193H390.722ZM386.066 193V190H383.272V193H386.066ZM381.41 193V190H378.616V193H381.41ZM376.754 193V190H373.96V193H376.754ZM372.097 193V190H369.304V193H372.097ZM367.441 193V190H364.648V193H367.441ZM362.785 193V190H359.991V193H362.785ZM358.129 193V190H355.335V193H358.129ZM353.473 193V190H350.679V193H353.473ZM348.817 193V190H346.023V193H348.817ZM344.16 193V190H341.367V193H344.16ZM339.504 193V190H336.711V193H339.504ZM334.848 193V190H332.054V193H334.848ZM330.192 193V190H327.398V193H330.192ZM325.536 193V190H322.742V193H325.536ZM322.742 188H325.536V185H322.742V188ZM322.742 183H325.536V180H322.742V183ZM322.742 178H325.536V175H322.742V178ZM322.742 173H325.536V170H322.742V173ZM322.742 168H325.536V165H322.742V168ZM322.742 163H325.536V160H322.742V163ZM322.742 158H325.536V155H322.742V158ZM322.742 153H325.536V150H322.742V153ZM322.742 148H325.536V145H322.742V148ZM322.742 143H325.536L325.536 140H322.742L322.742 143ZM322.742 138H325.536V135H322.742V138ZM322.742 133H325.536V130H322.742V133ZM322.742 128H325.536V125H322.742V128ZM322.742 123H325.536V120H322.742V123ZM322.742 118H325.536V115H322.742V118ZM322.742 113H325.536V110H322.742V113ZM322.742 108H325.536V105H322.742V108ZM322.742 103H325.536V100H322.742V103ZM322.742 98H325.536V95H322.742V98ZM322.742 93H325.536V90H322.742V93ZM322.742 88H325.536V85H322.742V88ZM322.742 83H325.536V80H322.742V83ZM322.742 78H325.536V75H322.742V78ZM322.742 73H325.536V70H322.742V73ZM322.742 68H325.536V65H322.742V68ZM322.742 63H325.536V60H322.742V63ZM322.742 58H325.536V55H322.742V58ZM322.742 53H325.536V50H322.742V53ZM322.742 48H325.536V45H322.742V48ZM322.742 43H325.536V40H322.742V43ZM327.398 40V43H330.192V40H327.398ZM332.054 40V43H334.848V40H332.054ZM336.711 40V43H339.504V40H336.711ZM341.367 40V43H344.16V40H341.367ZM346.023 40V43H348.817V40H346.023ZM350.679 40V43H353.473V40H350.679ZM355.335 40V43H358.129V40H355.335ZM359.991 40V43H362.785V40H359.991ZM364.648 40V43H367.441V40H364.648ZM369.304 40V43H372.097V40H369.304ZM373.96 40V43H376.754V40H373.96ZM378.616 40V43H381.41V40H378.616ZM383.272 40V43H386.066V40H383.272ZM387.928 40V43H390.722V40H387.928ZM392.585 40V43H395.378V40H392.585ZM397.241 40V43H400.034V40H397.241ZM401.897 40V43H404.691V40H401.897ZM404.691 45H401.897V48H404.691V45ZM404.691 50H401.897V53H404.691V50ZM404.691 55H401.897V58H404.691V55ZM404.691 60H401.897V63H404.691V60ZM404.691 65H401.897V68H404.691V65ZM404.691 70H401.897V73H404.691V70ZM404.691 75H401.897V78H404.691V75ZM404.691 80H401.897V83H404.691V80ZM404.691 85H401.897V88H404.691V85ZM404.691 90H401.897V93H404.691V90ZM404.691 95H401.897V98H404.691V95ZM404.691 100H401.897V103H404.691V100ZM404.691 105H401.897V108H404.691V105ZM404.691 110H401.897V113H404.691V110ZM404.691 115H401.897V118H404.691V115ZM404.691 120H401.897V123H404.691V120ZM404.691 125H401.897V128H404.691V125ZM404.691 130H401.897V133H404.691V130ZM404.691 135H401.897V138H404.691V135ZM404.691 140H401.897L401.897 143H404.691L404.691 140ZM404.691 145H401.897V148H404.691V145ZM404.691 150H401.897V153H404.691V150ZM404.691 155H401.897V158H404.691V155ZM404.691 160H401.897V163H404.691V160ZM404.691 165H401.897V168H404.691V165ZM404.691 170H401.897V173H404.691V170ZM404.691 175H401.897V178H404.691V175ZM404.691 180H401.897V183H404.691V180ZM404.691 185H401.897V188H404.691V185ZM400.034 188V185H397.241V188H400.034ZM395.378 188V185H392.585V188H395.378ZM390.722 188V185H387.928V188H390.722ZM386.066 188V185H383.272V188H386.066ZM381.41 188V185H378.616V188H381.41ZM376.754 188V185H373.96V188H376.754ZM372.097 188V185H369.304V188H372.097ZM367.441 188V185H364.648V188H367.441ZM362.785 188V185H359.991V188H362.785ZM358.129 188V185H355.335V188H358.129ZM353.473 188V185H350.679V188H353.473ZM348.817 188V185H346.023V188H348.817ZM344.16 188V185H341.367V188H344.16ZM339.504 188V185H336.711V188H339.504ZM334.848 188V185H332.054V188H334.848ZM330.192 188V185H327.398V188H330.192ZM327.398 183H330.192V180H327.398V183ZM327.398 178H330.192V175H327.398V178ZM327.398 173H330.192V170H327.398V173ZM327.398 168H330.192V165H327.398V168ZM327.398 163H330.192V160H327.398V163ZM327.398 158H330.192V155H327.398V158ZM327.398 153H330.192V150H327.398V153ZM327.398 148H330.192V145H327.398V148ZM327.398 143H330.192L330.192 140H327.398L327.398 143ZM327.398 138H330.192V135H327.398V138ZM327.398 133H330.192V130H327.398V133ZM327.398 128H330.192V125H327.398V128ZM327.398 123H330.192V120H327.398V123ZM327.398 118H330.192V115H327.398V118ZM327.398 113H330.192V110H327.398V113ZM327.398 108H330.192V105H327.398V108ZM327.398 103H330.192V100H327.398V103ZM327.398 98H330.192V95H327.398V98ZM327.398 93H330.192V90H327.398V93ZM327.398 88H330.192V85H327.398V88ZM327.398 83H330.192V80H327.398V83ZM327.398 78H330.192V75H327.398V78ZM327.398 73H330.192V70H327.398V73ZM327.398 68H330.192V65H327.398V68ZM327.398 63H330.192V60H327.398V63ZM327.398 58H330.192V55H327.398V58ZM327.398 53H330.192V50H327.398V53ZM327.398 48H330.192V45H327.398V48ZM332.054 45V48H334.848V45H332.054ZM336.711 45V48H339.504V45H336.711ZM341.367 45V48H344.16V45H341.367ZM346.023 45V48H348.817V45H346.023ZM350.679 45V48H353.473V45H350.679ZM355.335 45V48H358.129V45H355.335ZM359.991 45V48H362.785V45H359.991ZM364.648 45V48H367.441V45H364.648ZM369.304 45V48H372.097V45H369.304ZM373.96 45V48H376.754V45H373.96ZM378.616 45V48H381.41V45H378.616ZM383.272 45V48H386.066V45H383.272ZM387.928 45V48H390.722V45H387.928ZM392.585 45V48H395.378V45H392.585ZM397.241 45V48H400.034V45H397.241ZM400.034 50H397.241V53H400.034V50ZM400.034 55H397.241V58H400.034V55ZM400.034 60H397.241V63H400.034V60ZM400.034 65H397.241V68H400.034V65ZM400.034 70H397.241V73H400.034V70ZM400.034 75H397.241V78H400.034V75ZM400.034 80H397.241V83H400.034V80ZM400.034 85H397.241V88H400.034V85ZM400.034 90H397.241V93H400.034V90ZM400.034 95H397.241V98H400.034V95ZM400.034 100H397.241V103H400.034V100ZM400.034 105H397.241V108H400.034V105ZM400.034 110H397.241V113H400.034V110ZM400.034 115H397.241V118H400.034V115ZM400.034 120H397.241V123H400.034V120ZM400.034 125H397.241V128H400.034V125ZM400.034 130H397.241V133H400.034V130ZM400.034 135H397.241V138H400.034V135ZM400.034 140H397.241V143H400.034L400.034 140ZM400.034 145H397.241V148H400.034V145ZM400.034 150H397.241V153H400.034V150ZM400.034 155H397.241V158H400.034V155ZM400.034 160H397.241V163H400.034V160ZM400.034 165H397.241V168H400.034V165ZM400.034 170H397.241V173H400.034V170ZM400.034 175H397.241V178H400.034V175ZM400.034 180H397.241V183H400.034V180ZM395.378 183V180H392.585V183H395.378ZM390.722 183V180H387.928V183H390.722ZM386.066 183V180H383.272V183H386.066ZM381.41 183V180H378.616V183H381.41ZM376.754 183V180H373.96V183H376.754ZM372.097 183V180H369.304V183H372.097ZM367.441 183V180H364.648V183H367.441ZM362.785 183V180H359.991V183H362.785ZM358.129 183V180H355.335V183H358.129ZM353.473 183V180H350.679V183H353.473ZM348.817 183V180H346.023V183H348.817ZM344.16 183V180H341.367V183H344.16ZM339.504 183V180H336.711V183H339.504ZM334.848 183V180H332.054V183H334.848ZM332.054 178H334.848V175H332.054V178ZM332.054 173H334.848V170H332.054V173ZM332.054 168H334.848V165H332.054V168ZM332.054 163H334.848V160H332.054V163ZM332.054 158H334.848V155H332.054V158ZM332.054 153H334.848V150H332.054V153ZM332.054 148H334.848V145H332.054V148ZM332.054 143H334.848L334.848 140H332.054L332.054 143ZM332.054 138H334.848V135H332.054V138ZM332.054 133H334.848V130H332.054V133ZM332.054 128H334.848V125H332.054V128ZM332.054 123H334.848V120H332.054V123ZM332.054 118H334.848V115H332.054V118ZM332.054 113H334.848V110H332.054V113ZM332.054 108H334.848V105H332.054V108ZM332.054 103H334.848V100H332.054V103ZM332.054 98H334.848V95H332.054V98ZM332.054 93H334.848V90H332.054V93ZM332.054 88H334.848V85H332.054V88ZM332.054 83H334.848V80H332.054V83ZM332.054 78H334.848V75H332.054V78ZM332.054 73H334.848V70H332.054V73ZM332.054 68H334.848V65H332.054V68ZM332.054 63H334.848V60H332.054V63ZM332.054 58H334.848V55H332.054V58ZM332.054 53H334.848V50H332.054V53ZM336.711 50V53H339.504V50H336.711ZM341.367 50V53H344.16V50H341.367ZM346.023 50V53H348.817V50H346.023ZM350.679 50V53H353.473V50H350.679ZM355.335 50V53H358.129V50H355.335ZM359.991 50V53H362.785V50H359.991ZM364.648 50V53H367.441V50H364.648ZM369.304 50V53H372.097V50H369.304ZM373.96 50V53H376.754V50H373.96ZM378.616 50V53H381.41V50H378.616ZM383.272 50V53H386.066V50H383.272ZM387.928 50V53H390.722V50H387.928ZM392.585 50V53H395.378V50H392.585ZM395.378 55H392.585V58H395.378V55ZM395.378 60H392.585V63H395.378V60ZM395.378 65H392.585V68H395.378V65ZM395.378 70H392.585V73H395.378V70ZM395.378 75H392.585V78H395.378V75ZM395.378 80H392.585V83H395.378V80ZM395.378 85H392.585V88H395.378V85ZM395.378 90H392.585V93H395.378V90ZM395.378 95H392.585V98H395.378V95ZM395.378 100H392.585V103H395.378V100ZM395.378 105H392.585V108H395.378V105ZM395.378 110H392.585V113H395.378V110ZM395.378 115H392.585V118H395.378V115ZM395.378 120H392.585V123H395.378V120ZM395.378 125H392.585V128H395.378V125ZM395.378 130H392.585V133H395.378V130ZM395.378 135H392.585V138H395.378V135ZM395.378 140H392.585V143H395.378V140ZM395.378 145H392.585V148H395.378V145ZM395.378 150H392.585V153H395.378V150ZM395.378 155H392.585V158H395.378V155ZM395.378 160H392.585V163H395.378V160ZM395.378 165H392.585V168H395.378V165ZM395.378 170H392.585V173H395.378V170ZM395.378 175H392.585V178H395.378V175ZM390.722 178V175H387.928V178H390.722ZM386.066 178V175H383.272V178H386.066ZM381.41 178V175H378.616V178H381.41ZM376.754 178V175H373.96V178H376.754ZM372.097 178V175H369.304V178H372.097ZM367.441 178V175H364.648V178H367.441ZM362.785 178V175H359.991V178H362.785ZM358.129 178V175H355.335V178H358.129ZM353.473 178V175H350.679V178H353.473ZM348.817 178V175H346.023V178H348.817ZM344.16 178V175H341.367V178H344.16ZM339.504 178V175H336.711V178H339.504ZM336.711 173H339.504V170H336.711V173ZM336.711 168H339.504V165H336.711V168ZM336.711 163H339.504V160H336.711V163ZM336.711 158H339.504V155H336.711V158ZM336.711 153H339.504V150H336.711V153ZM336.711 148H339.504V145H336.711V148ZM336.711 143H339.504V140H336.711V143ZM336.711 138H339.504V135H336.711V138ZM336.711 133H339.504V130H336.711V133ZM336.711 128H339.504V125H336.711V128ZM336.711 123H339.504V120H336.711V123ZM336.711 118H339.504V115H336.711V118ZM336.711 113H339.504V110H336.711V113ZM336.711 108H339.504V105H336.711V108ZM336.711 103H339.504V100H336.711V103ZM336.711 98H339.504V95H336.711V98ZM336.711 93H339.504V90H336.711V93ZM336.711 88H339.504V85H336.711V88ZM336.711 83H339.504V80H336.711V83ZM336.711 78H339.504V75H336.711V78ZM336.711 73H339.504V70H336.711V73ZM336.711 68H339.504V65H336.711V68ZM336.711 63H339.504V60H336.711V63ZM336.711 58H339.504V55H336.711V58ZM341.367 55V58H344.16V55H341.367ZM346.023 55V58H348.817V55H346.023ZM350.679 55V58H353.473V55H350.679ZM355.335 55V58H358.129V55H355.335ZM359.991 55V58H362.785V55H359.991ZM364.648 55V58H367.441V55H364.648ZM369.304 55V58H372.097V55H369.304ZM373.96 55V58H376.754V55H373.96ZM378.616 55V58H381.41V55H378.616ZM383.272 55V58H386.066V55H383.272ZM387.928 55V58H390.722V55H387.928ZM390.722 60H387.928V63H390.722V60ZM390.722 65H387.928V68H390.722V65ZM390.722 70H387.928V73H390.722V70ZM390.722 75H387.928V78H390.722V75ZM390.722 80H387.928V83H390.722V80ZM390.722 85H387.928V88H390.722V85ZM390.722 90H387.928V93H390.722V90ZM390.722 95H387.928V98H390.722V95ZM390.722 100H387.928V103H390.722V100ZM390.722 105H387.928V108H390.722V105ZM390.722 110H387.928V113H390.722V110ZM390.722 115H387.928V118H390.722V115ZM390.722 120H387.928V123H390.722V120ZM390.722 125H387.928V128H390.722V125ZM390.722 130H387.928V133H390.722V130ZM390.722 135H387.928V138H390.722V135ZM390.722 140H387.928V143H390.722V140ZM390.722 145H387.928V148H390.722V145ZM390.722 150H387.928V153H390.722V150ZM390.722 155H387.928V158H390.722V155ZM390.722 160H387.928V163H390.722V160ZM390.722 165H387.928V168H390.722V165ZM390.722 170H387.928V173H390.722V170ZM386.066 173V170H383.272V173H386.066ZM381.41 173V170H378.616V173H381.41ZM376.754 173V170H373.96V173H376.754ZM372.097 173V170H369.304V173H372.097ZM367.441 173V170H364.648V173H367.441ZM362.785 173V170H359.991V173H362.785ZM358.129 173V170H355.335V173H358.129ZM353.473 173V170H350.679V173H353.473ZM348.817 173V170H346.023V173H348.817ZM344.16 173V170H341.367V173H344.16ZM341.367 168H344.16V165H341.367V168ZM341.367 163H344.16V160H341.367V163ZM341.367 158H344.16V155H341.367V158ZM341.367 153H344.16V150H341.367V153ZM341.367 148H344.16V145H341.367V148ZM341.367 143H344.16V140H341.367V143ZM341.367 138H344.16V135H341.367V138ZM341.367 133H344.16V130H341.367V133ZM341.367 128H344.16V125H341.367V128ZM341.367 123H344.16V120H341.367V123ZM341.367 118H344.16V115H341.367V118ZM341.367 113H344.16V110H341.367V113ZM341.367 108H344.16V105H341.367V108ZM341.367 103H344.16V100H341.367V103ZM341.367 98H344.16V95H341.367V98ZM341.367 93H344.16V90H341.367V93ZM341.367 88H344.16V85H341.367V88ZM341.367 83H344.16V80H341.367V83ZM341.367 78H344.16V75H341.367V78ZM341.367 73H344.16V70H341.367V73ZM341.367 68H344.16V65H341.367V68ZM341.367 63H344.16V60H341.367V63ZM346.023 60V63H348.817V60H346.023ZM350.679 60V63H353.473V60H350.679ZM355.335 60V63H358.129V60H355.335ZM359.991 60V63H362.785V60H359.991ZM364.648 60V63H367.441V60H364.648ZM369.304 60V63H372.097V60H369.304ZM373.96 60V63H376.754V60H373.96ZM378.616 60V63H381.41V60H378.616ZM383.272 60V63H386.066V60H383.272ZM386.066 65H383.272V68H386.066V65ZM386.066 70H383.272V73H386.066V70ZM386.066 75H383.272V78H386.066V75ZM386.066 80H383.272V83H386.066V80ZM386.066 85H383.272V88H386.066V85ZM386.066 90H383.272V93H386.066V90ZM386.066 95H383.272V98H386.066V95ZM386.066 100H383.272V103H386.066V100ZM386.066 105H383.272V108H386.066V105ZM386.066 110H383.272V113H386.066V110ZM386.066 115H383.272V118H386.066V115ZM386.066 120H383.272V123H386.066V120ZM386.066 125H383.272V128H386.066V125ZM386.066 130H383.272V133H386.066V130ZM386.066 135H383.272V138H386.066V135ZM386.066 140H383.272V143H386.066V140ZM386.066 145H383.272V148H386.066V145ZM386.066 150H383.272V153H386.066V150ZM386.066 155H383.272V158H386.066V155ZM386.066 160H383.272V163H386.066V160ZM386.066 165H383.272V168H386.066V165ZM381.41 168V165H378.616V168H381.41ZM376.754 168V165H373.96V168H376.754ZM372.097 168V165H369.304V168H372.097ZM367.441 168V165H364.648V168H367.441ZM362.785 168V165H359.991V168H362.785ZM358.129 168V165H355.335V168H358.129ZM353.473 168V165H350.679V168H353.473ZM348.817 168V165H346.023V168H348.817ZM346.023 163H348.817V160H346.023V163ZM346.023 158H348.817V155H346.023V158ZM346.023 153H348.817V150H346.023V153ZM346.023 148H348.817V145H346.023V148ZM346.023 143H348.817V140H346.023V143ZM346.023 138H348.817V135H346.023V138ZM346.023 133H348.817V130H346.023V133ZM346.023 128H348.817V125H346.023V128ZM346.023 123H348.817V120H346.023V123ZM346.023 118H348.817V115H346.023V118ZM346.023 113H348.817V110H346.023V113ZM346.023 108H348.817V105H346.023V108ZM346.023 103H348.817V100H346.023V103ZM346.023 98H348.817V95H346.023V98ZM346.023 93H348.817V90H346.023V93ZM346.023 88H348.817V85H346.023V88ZM346.023 83H348.817V80H346.023V83ZM346.023 78H348.817V75H346.023V78ZM346.023 73H348.817V70H346.023V73ZM346.023 68H348.817V65H346.023V68ZM350.679 65V68H353.473V65H350.679ZM355.335 65V68H358.129V65H355.335ZM359.991 65V68H362.785V65H359.991ZM364.648 65V68H367.441V65H364.648ZM369.304 65V68H372.097V65H369.304ZM373.96 65V68H376.754V65H373.96ZM378.616 65V68H381.41V65H378.616ZM381.41 70H378.616V73H381.41V70ZM381.41 75H378.616V78H381.41V75ZM381.41 80H378.616V83H381.41V80ZM381.41 85H378.616V88H381.41V85ZM381.41 90H378.616V93H381.41V90ZM381.41 95H378.616V98H381.41V95ZM381.41 100H378.616V103H381.41V100ZM381.41 105H378.616V108H381.41V105ZM381.41 110H378.616V113H381.41V110ZM381.41 115H378.616V118H381.41V115ZM381.41 120H378.616V123H381.41V120ZM381.41 125H378.616V128H381.41V125ZM381.41 130H378.616V133H381.41V130ZM381.41 135H378.616V138H381.41V135ZM381.41 140H378.616V143H381.41V140ZM381.41 145H378.616V148H381.41V145ZM381.41 150H378.616V153H381.41V150ZM381.41 155H378.616V158H381.41V155ZM381.41 160H378.616V163H381.41V160ZM376.754 163V160H373.96V163H376.754ZM372.097 163V160H369.304V163H372.097ZM367.441 163V160H364.648V163H367.441ZM362.785 163V160H359.991V163H362.785ZM358.129 163V160H355.335V163H358.129ZM353.473 163V160H350.679V163H353.473ZM350.679 158H353.473V155H350.679V158ZM350.679 153H353.473V150H350.679V153ZM350.679 148H353.473V145H350.679V148ZM350.679 143H353.473V140H350.679V143ZM350.679 138H353.473V135H350.679V138ZM350.679 133H353.473V130H350.679V133ZM350.679 128H353.473V125H350.679V128ZM350.679 123H353.473V120H350.679V123ZM350.679 118H353.473V115H350.679V118ZM350.679 113H353.473V110H350.679V113ZM350.679 108H353.473V105H350.679V108ZM350.679 103H353.473V100H350.679V103ZM350.679 98H353.473V95H350.679V98ZM350.679 93H353.473V90H350.679V93ZM350.679 88H353.473V85H350.679V88ZM350.679 83H353.473V80H350.679V83ZM350.679 78H353.473V75H350.679V78ZM350.679 73H353.473V70H350.679V73ZM355.335 70V73H358.129V70H355.335ZM359.991 70V73H362.785V70H359.991ZM364.648 70V73H367.441V70H364.648ZM369.304 70V73H372.097V70H369.304ZM373.96 70V73H376.754V70H373.96ZM376.754 75H373.96V78H376.754V75ZM376.754 80H373.96V83H376.754V80ZM376.754 85H373.96V88H376.754V85ZM376.754 90H373.96V93H376.754V90ZM376.754 95H373.96V98H376.754V95ZM376.754 100H373.96V103H376.754V100ZM376.754 105H373.96V108H376.754V105ZM376.754 110H373.96V113H376.754V110ZM376.754 115H373.96V118H376.754V115ZM376.754 120H373.96V123H376.754V120ZM376.754 125H373.96V128H376.754V125ZM376.754 130H373.96V133H376.754V130ZM376.754 135H373.96V138H376.754V135ZM376.754 140H373.96V143H376.754V140ZM376.754 145H373.96V148H376.754V145ZM376.754 150H373.96V153H376.754V150ZM376.754 155H373.96V158H376.754V155ZM372.097 158V155H369.304V158H372.097ZM367.441 158V155H364.648V158H367.441ZM362.785 158V155H359.991V158H362.785ZM358.129 158V155H355.335V158H358.129ZM355.335 153H358.129V150H355.335V153ZM355.335 148H358.129V145H355.335V148ZM355.335 143H358.129V140H355.335V143ZM355.335 138H358.129V135H355.335V138ZM355.335 133H358.129V130H355.335V133ZM355.335 128H358.129V125H355.335V128ZM355.335 123H358.129V120H355.335V123ZM355.335 118H358.129V115H355.335V118ZM355.335 113H358.129V110H355.335V113ZM355.335 108H358.129V105H355.335V108ZM355.335 103H358.129V100H355.335V103ZM355.335 98H358.129V95H355.335V98ZM355.335 93H358.129V90H355.335V93ZM355.335 88H358.129V85H355.335V88ZM355.335 83H358.129V80H355.335V83ZM355.335 78H358.129V75H355.335V78ZM359.991 75V78H362.785V75H359.991ZM364.648 75V78H367.441V75H364.648ZM369.304 75V78H372.097V75H369.304ZM372.097 80H369.304V83H372.097V80ZM372.097 85H369.304V88H372.097V85ZM372.097 90H369.304V93H372.097V90ZM372.097 95H369.304V98H372.097V95ZM372.097 100H369.304V103H372.097V100ZM372.097 105H369.304V108H372.097V105ZM372.097 110H369.304V113H372.097V110ZM372.097 115H369.304V118H372.097V115ZM372.097 120H369.304V123H372.097V120ZM372.097 125H369.304V128H372.097V125ZM372.097 130H369.304V133H372.097V130ZM372.097 135H369.304V138H372.097V135ZM372.097 140H369.304V143H372.097V140ZM372.097 145H369.304V148H372.097V145ZM372.097 150H369.304V153H372.097V150ZM367.441 153V150H364.648V153H367.441ZM362.785 153V150H359.991V153H362.785ZM359.991 148H362.785V145H359.991V148ZM359.991 143H362.785V140H359.991V143ZM359.991 138H362.785V135H359.991V138ZM359.991 133H362.785V130H359.991V133ZM359.991 128H362.785V125H359.991V128ZM359.991 123H362.785V120H359.991V123ZM359.991 118H362.785V115H359.991V118ZM359.991 113H362.785V110H359.991V113ZM359.991 108H362.785V105H359.991V108ZM359.991 103H362.785V100H359.991V103ZM359.991 98H362.785V95H359.991V98ZM359.991 93H362.785V90H359.991V93ZM359.991 88H362.785V85H359.991V88ZM359.991 83H362.785V80H359.991V83ZM364.648 80V83H367.441V80H364.648ZM367.441 85H364.648V88H367.441V85ZM367.441 90H364.648V93H367.441V90ZM367.441 95H364.648V98H367.441V95ZM367.441 100H364.648V103H367.441V100ZM367.441 105H364.648V108H367.441V105ZM367.441 110H364.648V113H367.441V110ZM367.441 115H364.648V118H367.441V115ZM367.441 120H364.648V123H367.441V120ZM367.441 125H364.648V128H367.441V125ZM367.441 130H364.648V133H367.441V130ZM367.441 135H364.648V138H367.441V135ZM367.441 140H364.648V143H367.441V140ZM367.441 145H364.648V148H367.441V145ZM302.255 32.2518C302.037 32.5002 301.821 32.7496 301.605 33H302.255V32.2518ZM302.255 35H299.919C299.766 35.1858 299.613 35.372 299.461 35.5588V38H302.255V35ZM302.255 40H299.461V43H302.255V40ZM302.255 45H299.461V48H302.255V45ZM302.255 50H299.461V53H302.255V50ZM302.255 55H299.461V58H302.255V55ZM302.255 60H299.461V63H302.255V60ZM302.255 65H299.461V68H302.255V65ZM302.255 70H299.461V73H302.255V70ZM302.255 75H299.461V78H302.255V75ZM302.255 80H299.461V83H302.255V80ZM302.255 85H299.461V88H302.255V85ZM302.255 90H299.461V93H302.255V90ZM302.255 95H299.461L299.461 98H302.255L302.255 95ZM302.255 100H299.461V103H302.255V100ZM302.255 105H299.461V108H302.255V105ZM302.255 110H299.461V113H302.255V110ZM302.255 115H299.461V118H302.255V115ZM302.255 120H299.461V123H302.255V120ZM302.255 125H299.461V128H302.255V125ZM302.255 130H299.461V133H302.255V130ZM302.255 135H299.461V138H302.255V135ZM302.255 140H299.461L299.461 143H302.255L302.255 140ZM302.255 145H299.461V148H302.255V145ZM302.255 150H299.461V153H302.255V150ZM302.255 155H299.461V158H302.255V155ZM302.255 160H299.461V163H302.255V160ZM302.255 165H299.461V168H302.255V165ZM302.255 170H299.461V173H302.255V170ZM302.255 175H299.461V178H302.255V175ZM302.255 180H299.461V183H302.255V180ZM302.255 185H299.461L299.461 188H302.255L302.255 185ZM297.599 183H294.805V180H297.599V183ZM297.599 178V175H294.805V178H297.599ZM294.805 173H297.599V170H294.805V173ZM294.805 168H297.599V165H294.805V168ZM292.943 165V168H290.149V165H292.943ZM294.805 163H297.599V160H294.805V163ZM292.943 160V163H290.149V160H292.943ZM294.805 158H297.599V155H294.805V158ZM292.943 155V158H290.149V155H292.943ZM294.805 153H297.599V150H294.805V153ZM292.943 150V153H290.149V150H292.943ZM294.805 148H297.599V145H294.805V148ZM292.943 145V148H290.149V145H292.943ZM294.805 143H297.599L297.599 140H294.805L294.805 143ZM292.943 140L292.943 143H290.149L290.149 140H292.943ZM294.805 138H297.599V135H294.805V138ZM292.943 135V138H290.149V135H292.943ZM294.805 133H297.599V130H294.805V133ZM292.943 130V133H290.149V130H292.943ZM294.805 128H297.599V125H294.805V128ZM292.943 125V128H290.149V125H292.943ZM294.805 123H297.599V120H294.805V123ZM292.943 120V123H290.149V120H292.943ZM294.805 118H297.599V115H294.805V118ZM292.943 115V118H290.149V115H292.943ZM294.805 113H297.599V110H294.805V113ZM292.943 110V113H290.149V110H292.943ZM294.805 108H297.599V105H294.805V108ZM292.943 105V108H290.149V105H292.943ZM294.805 103H297.599V100H294.805V103ZM292.943 100V103H290.149V100H292.943ZM294.805 98H297.599L297.599 95H294.805L294.805 98ZM292.943 95L292.943 98H290.149L290.149 95H292.943ZM294.805 93H297.599V90H294.805V93ZM292.943 90V93H290.149V90H292.943ZM294.805 88H297.599V85H294.805V88ZM292.943 85V88H290.149V85H292.943ZM294.805 83H297.599V80H294.805V83ZM292.943 80V83H290.149V80H292.943ZM294.805 78H297.599V75H294.805V78ZM292.943 75V78H290.149V75H292.943ZM294.805 73H297.599V70H294.805V73ZM292.943 70V73H290.149V70H292.943ZM294.805 68H297.599V65H294.805V68ZM292.943 65V68H290.149V65H292.943ZM294.805 63H297.599V60H294.805V63ZM292.943 60V63H290.149V60H292.943ZM294.805 58H297.599V55H294.805V58ZM292.943 55V58H290.149V55H292.943ZM294.805 53H297.599V50H294.805V53ZM292.943 50V53H290.149V50H292.943ZM294.805 48H297.599V45H294.805V48ZM292.943 45V48H290.576C291.206 46.9892 291.85 45.9891 292.508 45H292.943ZM294.805 43V41.6643C295.204 41.1057 295.607 40.5509 296.014 40H297.599V43H294.805ZM297.599 38V37.9052C297.574 37.9368 297.55 37.9684 297.526 38H297.599ZM288.287 51.8263C288.063 52.2161 287.841 52.6073 287.621 53H288.287V51.8263ZM288.287 55H286.526C286.176 55.653 285.832 56.3099 285.493 56.9705V58H288.287V55ZM288.287 60H285.493V63H288.287V60ZM288.287 65H285.493V68H288.287V65ZM288.287 70H285.493L285.493 73H288.287V70ZM288.287 75H285.493V78H288.287V75ZM288.287 80H285.493V83H288.287V80ZM288.287 85H285.493V88H288.287V85ZM288.287 90H285.493V93H288.287V90ZM288.287 95H285.493V98H288.287L288.287 95ZM288.287 100H285.493V103H288.287V100ZM288.287 105H285.493V108H288.287V105ZM288.287 110H285.493V113H288.287V110ZM288.287 115H285.493V118H288.287V115ZM288.287 120H285.493V123H288.287V120ZM288.287 125H285.493V128H288.287V125ZM288.287 130H285.493V133H288.287V130ZM288.287 135H285.493V138H288.287V135ZM288.287 140H285.493L285.493 143H288.287L288.287 140ZM288.287 145H285.493V148H288.287V145ZM288.287 150H285.493V153H288.287V150ZM288.287 155H285.493V158H288.287V155ZM288.287 160H285.493V163H288.287V160ZM283.63 153H280.837V150H283.63V153ZM283.63 148V145H280.837V148H283.63ZM280.837 143H283.63L283.63 140H280.837L280.837 143ZM280.837 138H283.63V135H280.837V138ZM280.837 133H283.63V130H280.837V133ZM280.837 128H283.63V125H280.837V128ZM280.837 123H283.63V120H280.837V123ZM280.837 118H283.63V115H280.837V118ZM280.837 113H283.63V110H280.837V113ZM278.974 110L278.974 113H276.181L276.181 110H278.974ZM280.837 108H283.63V105H280.837V108ZM278.974 105V108H276.181V105H278.974ZM280.837 103H283.63V100H280.837V103ZM278.974 100L278.974 103H276.181L276.181 100H278.974ZM280.837 98H283.63V95H280.837V98ZM278.974 95V98H276.181V95H278.974ZM280.837 93H283.63V90H280.837V93ZM278.974 90V93H276.181V90H278.974ZM280.837 88H283.63V85H280.837V88ZM278.974 85V88H276.181V85H278.974ZM280.837 83H283.63V80H280.837V83ZM278.974 80V83H276.181V80.8882C276.262 80.5917 276.345 80.2956 276.429 80H278.974ZM280.837 78H283.63V75H280.837V78ZM278.974 75L278.974 78H277.015C277.319 76.9942 277.634 75.9941 277.962 75H278.974ZM280.837 73H283.63L283.63 70H280.837L280.837 73ZM278.974 72.0467V73H278.638C278.749 72.6816 278.861 72.3638 278.974 72.0467ZM280.837 68V67.1499C281.128 66.4296 281.426 65.713 281.729 65H283.63V68H280.837ZM283.63 63V60.7589C283.281 61.5016 282.938 62.2486 282.602 63H283.63ZM274.318 90H274.02C273.822 90.9955 273.635 91.9956 273.46 93H274.318V90ZM274.318 95H273.127C272.97 95.9959 272.823 96.996 272.688 98H274.318L274.318 95ZM274.318 100H272.436C272.317 100.996 272.21 101.996 272.115 103H274.318L274.318 100ZM274.318 105H271.94C271.861 105.997 271.792 106.997 271.736 108H274.318L274.318 105ZM274.318 110H271.637C271.596 110.997 271.566 111.997 271.547 113H274.318L274.318 110ZM276.181 115H278.974V118H276.181V115ZM290.149 170H292.943V173H290.149V170ZM304.118 195H306.911V198H304.118V195Z" fill="url(#paint9_radial_6870_109369)"/>
</g>
<defs>
<linearGradient id="paint0_linear_6870_109369" x1="1.07651e-08" y1="81.4761" x2="389.988" y2="84.1899" gradientUnits="userSpaceOnUse">
<stop stop-color="white" stop-opacity="0.2"/>
<stop offset="1" stop-color="white" stop-opacity="0"/>
</linearGradient>
<linearGradient id="paint1_linear_6870_109369" x1="292.042" y1="1.14521e-05" x2="149.372" y2="257.107" gradientUnits="userSpaceOnUse">
<stop stop-color="#3B5CB8"/>
<stop offset="1" stop-color="#2B4495"/>
</linearGradient>
<linearGradient id="paint2_linear_6870_109369" x1="388.685" y1="-58" x2="388.685" y2="122" gradientUnits="userSpaceOnUse">
<stop stop-color="#3DB9FF" stop-opacity="0.6"/>
<stop offset="1" stop-color="#0F609A" stop-opacity="0"/>
</linearGradient>
<linearGradient id="paint3_linear_6870_109369" x1="327.398" y1="-47" x2="135.626" y2="180.719" gradientUnits="userSpaceOnUse">
<stop stop-color="#3DB9FF" stop-opacity="0.14"/>
<stop offset="1" stop-color="#0F609A" stop-opacity="0"/>
</linearGradient>
<linearGradient id="paint4_linear_6870_109369" x1="209.132" y1="264" x2="-34.0366" y2="40.3383" gradientUnits="userSpaceOnUse">
<stop stop-color="#3DB9FF" stop-opacity="0.11"/>
<stop offset="1" stop-color="#0F609A" stop-opacity="0"/>
</linearGradient>
<linearGradient id="paint5_linear_6870_109369" x1="359.991" y1="-46.9999" x2="168.218" y2="180.719" gradientUnits="userSpaceOnUse">
<stop stop-color="#3DB9FF" stop-opacity="0.14"/>
<stop offset="1" stop-color="#0F609A" stop-opacity="0"/>
</linearGradient>
<linearGradient id="paint6_linear_6870_109369" x1="427.04" y1="-76" x2="235.267" y2="151.719" gradientUnits="userSpaceOnUse">
<stop stop-color="#3DB9FF" stop-opacity="0.14"/>
<stop offset="1" stop-color="#0F609A" stop-opacity="0"/>
</linearGradient>
<linearGradient id="paint7_linear_6870_109369" x1="44.3799" y1="153" x2="44.3799" y2="258" gradientUnits="userSpaceOnUse">
<stop stop-color="#3DB9FF" stop-opacity="0.6"/>
<stop offset="1" stop-color="#0F609A" stop-opacity="0"/>
</linearGradient>
<radialGradient id="paint8_radial_6870_109369" cx="0" cy="0" r="1" gradientUnits="userSpaceOnUse" gradientTransform="translate(26.1443 2.5) rotate(90) scale(121.5 113.145)">
<stop stop-color="#326BE0"/>
<stop offset="1" stop-color="#326BE0" stop-opacity="0"/>
</radialGradient>
<radialGradient id="paint9_radial_6870_109369" cx="0" cy="0" r="1" gradientUnits="userSpaceOnUse" gradientTransform="translate(384.668 115.5) rotate(90) scale(121.5 113.145)">
<stop stop-color="#326BE0"/>
<stop offset="1" stop-color="#326BE0" stop-opacity="0"/>
</radialGradient>
<clipPath id="clip0_6870_109369">
<rect width="390" height="192" rx="10" fill="white"/>
</clipPath>
</defs>
</svg>
