<svg width="32" height="32" viewBox="0 0 32 32" fill="none" xmlns="http://www.w3.org/2000/svg">
<path fill-rule="evenodd" clip-rule="evenodd" d="M3 7H16.9654L2.19866 24.5983C2.07389 24.4315 2 24.2244 2 24V8C2 7.44772 2.44772 7 3 7ZM22 25H8.38865L22.9401 7.65827C22.9789 7.76489 23 7.87998 23 8V24C23 24.5523 22.5523 25 22 25ZM28.5771 9.66401L24 11.8V20.2L28.5771 22.336C29.2401 22.6454 30 22.1614 30 21.4298V10.5702C30 9.83858 29.2401 9.35462 28.5771 9.66401Z" fill="white"/>
<rect x="22" y="3" width="2" height="30" rx="1" transform="rotate(40 22 3)" fill="#E44747"/>
</svg>
