<svg width="32" height="32" viewBox="0 0 32 32" fill="none" xmlns="http://www.w3.org/2000/svg">
<path fill-rule="evenodd" clip-rule="evenodd" d="M11 7C11 4.23858 13.2386 2 16 2C18.3334 2 20.2934 3.59837 20.845 5.75995L11.0215 17.4671C11.0073 17.3133 11 17.1575 11 17V7ZM9.41543 19.3812C9.14658 18.6379 9 17.8361 9 17V16H7V17C7 18.4729 7.35384 19.8632 7.98115 21.0905L9.41543 19.3812ZM11.4322 24.7563L12.7409 23.1966C13.7143 23.7096 14.8232 24 16 24C19.866 24 23 20.866 23 17V16H25V17C25 21.6326 21.5 25.4476 17 25.9451V28H20C20.5523 28 21 28.4477 21 29C21 29.5523 20.5523 30 20 30H17H15H12C11.4477 30 11 29.5523 11 29C11 28.4477 11.4477 28 12 28H15V25.9451C13.7087 25.8023 12.4997 25.3864 11.4322 24.7563ZM14.0693 21.6136L21 13.3539V17C21 19.7614 18.7614 22 16 22C15.3156 22 14.6633 21.8625 14.0693 21.6136Z" fill="white" fill-opacity="0.45"/>
<rect x="25" y="3" width="2" height="30" rx="1" transform="rotate(40 25 3)" fill="#E44747" fill-opacity="0.45"/>
</svg>
