<svg width="32" height="32" viewBox="0 0 32 32" fill="none" xmlns="http://www.w3.org/2000/svg">
<g id="&#230;&#188;&#148;&#232;&#174;&#178;&#232;&#128;&#133;&#230;&#168;&#161;&#229;&#188;&#143;">
<path id="Union" fill-rule="evenodd" clip-rule="evenodd" d="M16 15C18.7614 15 21 12.7614 21 10C21 7.23858 18.7614 5 16 5C13.2386 5 11 7.23858 11 10C11 12.7614 13.2386 15 16 15ZM16 15C21.5228 15 26 19.2533 26 24.5C26 25.0104 25.9576 25.5114 25.8761 26H6.12395C6.04237 25.5114 6 25.0104 6 24.5C6 19.2533 10.4772 15 16 15ZM14 22.9999L15.5 15.9999H16.5L18 22.9999L16 24.9999L14 22.9999Z" fill="white"/>
<rect id="Rectangle 1697" x="4" y="27" width="24" height="1" rx="0.5" fill="white"/>
</g>
</svg>
