<svg width="32" height="32" viewBox="0 0 32 32" fill="none" xmlns="http://www.w3.org/2000/svg">
<g id="icon/video_open_32">
<path id="Union" fill-rule="evenodd" clip-rule="evenodd" d="M16 15C18.7614 15 21 12.7614 21 10C21 7.23858 18.7614 5 16 5C13.2386 5 11 7.23858 11 10C11 12.7614 13.2386 15 16 15ZM16 15C10.4772 15 6 19.2533 6 24.5C6 25.0104 6.04237 25.5114 6.12395 26H25.8761C25.9576 25.5114 26 25.0104 26 24.5C26 19.2533 21.5228 15 16 15Z" fill="white"/>
<path id="Subtract" fill-rule="evenodd" clip-rule="evenodd" d="M10.9445 14.668C10.981 14.4507 11 14.2276 11 14C11 11.7909 9.20914 10 7 10C4.79086 10 3 11.7909 3 14C3 16.1678 4.72453 17.9329 6.87656 17.9981C7.95278 16.5979 9.34411 15.4525 10.9445 14.668ZM6.87428 18.0011C5.3852 19.9398 4.5 22.3665 4.5 25C4.5 25.3369 4.51449 25.6704 4.54288 26H0.0708888C0.024172 25.6734 0 25.3395 0 25C0 21.176 3.06629 18.0682 6.87428 18.0011ZM27.4571 26C27.4855 25.6704 27.5 25.3369 27.5 25C27.5 22.3665 26.6148 19.9398 25.1257 18.0011C28.9337 18.0682 32 21.176 32 25C32 25.3395 31.9758 25.6734 31.9291 26H27.4571ZM25.1234 17.9981C27.2755 17.9329 29 16.1678 29 14C29 11.7909 27.2091 10 25 10C22.7909 10 21 11.7909 21 14C21 14.2276 21.019 14.4507 21.0555 14.668C22.6559 15.4525 24.0472 16.5979 25.1234 17.9981Z" fill="white"/>
</g>
</svg>
