<svg width="64" height="34" viewBox="0 0 64 34" fill="none" xmlns="http://www.w3.org/2000/svg">
<path fill-rule="evenodd" clip-rule="evenodd" d="M1.5 0C0.671573 0 0 0.671573 0 1.5C0 2.32843 0.671573 3 1.5 3H3.5C4.32843 3 5 2.32843 5 1.5C5 0.671573 4.32843 0 3.5 0H1.5ZM6 1.5C6 0.671573 6.67157 0 7.5 0H9.52249H11.5H14.479C18.1831 0 21.5838 2.04749 23.3169 5.32112L29.1164 16.2758L22.4153 27.5856L18.7351 21H16.5C15.6716 21 15 20.3284 15 19.5C15 18.6716 15.6716 18 16.5 18H17.0587L17.0586 17.9998H17.4997C18.3281 17.9998 18.9997 17.3283 18.9997 16.4998C18.9997 15.6714 18.3281 14.9998 17.4997 14.9998H16.5223C16.5149 14.9999 16.5075 15 16.5 15H12.5C11.6716 15 11 14.3284 11 13.5C11 12.6716 11.6716 12 12.5 12H13.7057L13.7056 11.9998H14.4997C15.3281 11.9998 15.9997 11.3283 15.9997 10.4998C15.9997 9.67674 15.3367 9.00848 14.5156 8.99992C14.5104 8.99997 14.5052 9 14.5 9H8.5C7.67157 9 7 8.32843 7 7.5C7 6.67157 7.67157 6 8.5 6H10.3528L10.3527 5.99984H11.4997C12.3281 5.99984 12.9997 5.32826 12.9997 4.49984C12.9997 3.67674 12.3367 3.00848 11.5156 2.99992C11.5104 2.99997 11.5052 3 11.5 3H7.5C6.67157 3 6 2.32843 6 1.5ZM5 13.5C5 12.6716 5.67157 12 6.5 12H8.5C9.32843 12 10 12.6716 10 13.5C10 14.3284 9.32843 15 8.5 15H6.5C5.67157 15 5 14.3284 5 13.5Z" fill="#21C5A9"/>
<path d="M27.6001 4.9298C29.3968 1.87541 32.6758 0 36.2195 0H43L25.8999 29.0702C24.1032 32.1246 20.8242 34 17.2805 34H10.5L27.6001 4.9298Z" fill="url(#paint0_linear_6870_109197)"/>
<path fill-rule="evenodd" clip-rule="evenodd" d="M51.7195 0C48.1758 0 44.8968 1.87541 43.1001 4.9298L26 34H32.7805C36.3242 34 39.6032 32.1246 41.3999 29.0702L58.5 0H51.7195ZM49.5838 23.3748C48.5373 23.3748 47.5666 23.0506 46.7665 22.4971L51.7819 13.9707C53.4176 14.781 54.5422 16.4674 54.5422 18.4164C54.5422 21.1548 52.3222 23.3748 49.5838 23.3748Z" fill="url(#paint1_linear_6870_109197)"/>
<path fill-rule="evenodd" clip-rule="evenodd" d="M42.0586 30.5002H58.6314C59.183 30.0378 59.7009 29.5364 60.1807 29.0002H42.9409L42.0586 30.5002ZM43.8233 27.5002H61.3611C61.6922 27.0197 61.9959 26.519 62.2701 26.0002H44.7057L43.8233 27.5002ZM53.0156 11.8733C55.3861 13.1334 57.0003 15.6283 57.0003 18.5002C57.0003 19.5668 56.7776 20.5815 56.3762 21.5002H63.7929C63.9293 20.6872 64.0003 19.852 64.0003 19.0002C64.0003 13.4376 60.9725 8.58227 56.475 5.99231L53.0156 11.8733ZM55.5008 23.0002H63.461C63.3199 23.5117 63.1523 24.0122 62.9598 24.5002H54.0009C54.5688 24.0736 55.0742 23.5682 55.5008 23.0002Z" fill="#21C5A9"/>
<defs>
<linearGradient id="paint0_linear_6870_109197" x1="26.6622" y1="0" x2="26.6622" y2="34" gradientUnits="userSpaceOnUse">
<stop offset="0.159375" stop-color="#60EDD4"/>
<stop offset="1" stop-color="#3CD0B4"/>
</linearGradient>
<linearGradient id="paint1_linear_6870_109197" x1="37.4077" y1="0" x2="37.4077" y2="34" gradientUnits="userSpaceOnUse">
<stop offset="0.159375" stop-color="#00B3FF"/>
<stop offset="1" stop-color="#0057FF"/>
</linearGradient>
</defs>
</svg>
