<svg width="32" height="32" viewBox="0 0 32 32" fill="none" xmlns="http://www.w3.org/2000/svg">
<g id="icon/video_open_32">
<path id="Subtract" fill-rule="evenodd" clip-rule="evenodd" d="M30 22.5C30 26.0899 27.0899 29 23.5 29C19.9101 29 17 26.0899 17 22.5C17 18.9101 19.9101 16 23.5 16C27.0899 16 30 18.9101 30 22.5ZM24 22H27V23H24V26H23V23H20V22H23V19H24V22Z" fill="white"/>
<path id="Subtract_2" fill-rule="evenodd" clip-rule="evenodd" d="M16.865 26C16.3127 24.9551 16 23.7641 16 22.5C16 20.3845 16.8758 18.4737 18.2847 17.1101C16.5674 15.7904 14.3809 15 12 15C6.47715 15 2 19.2533 2 24.5C2 25.0104 2.04237 25.5114 2.12395 26H16.865Z" fill="white"/>
<circle id="Ellipse 36" cx="12" cy="10" r="5" fill="white"/>
</g>
</svg>
