<svg width="120" height="40" viewBox="0 0 120 40" fill="none" xmlns="http://www.w3.org/2000/svg">
<rect x="1" y="1" width="118" height="38" rx="19" fill="#9D5E2F" fill-opacity="0.45" stroke="#F68D41" stroke-width="2"/>
<path d="M32.8906 16.4766L36.1328 17.6484C37.0234 17.2943 37.8568 16.8984 38.6328 16.4609H28.2344V14.8984H34.9219C34.7812 14.5339 34.6354 14.1745 34.4844 13.8203L36.9688 13.6484C37.0885 13.9661 37.2344 14.3828 37.4062 14.8984H43.7656V16.4609H38.7578L39.6406 17.5078C39.0677 17.7891 38.487 18.0573 37.8984 18.3125L39.9375 19.0859L39.4062 20.3047H40.4062V17.0547H42.4062V21.8359H36.8438L36.2812 22.7109H42.9688V26.9453C42.9688 27.5911 42.8594 28.0651 42.6406 28.3672C42.4271 28.6745 42.099 28.8594 41.6562 28.9219C41.2188 28.9844 40.1927 29.0078 38.5781 28.9922C38.4531 28.3672 38.3177 27.8255 38.1719 27.3672L39.0078 27.3984L38.5625 26.8047C35.5573 26.9089 33.526 27.0599 32.4688 27.2578L31.75 25.7109C32.1615 25.5911 32.6797 25.1016 33.3047 24.2422H31.2812V29.0859H29.1875V22.7109H34.2891C34.4505 22.4401 34.6198 22.1484 34.7969 21.8359H29.6562V17.0547H31.6562V20.3047H39.1016L36.0938 19.0391C34.9323 19.487 33.7448 19.888 32.5312 20.2422C32.3125 19.6797 32.1146 19.237 31.9375 18.9141C32.7396 18.737 33.5104 18.5339 34.25 18.3047C33.4844 18.0078 32.8073 17.7578 32.2188 17.5547L32.8906 16.4766ZM40.5781 26.6016L39.4609 27.4062C40.1484 27.4375 40.5547 27.3906 40.6797 27.2656C40.8099 27.1406 40.875 26.9766 40.875 26.7734V24.2422H38.5C39.2344 25.0391 39.9271 25.8255 40.5781 26.6016ZM36.7969 24.6328L37.3906 24.2422H35.2578C34.9661 24.6745 34.6667 25.1068 34.3594 25.5391C35.2292 25.5078 36.2552 25.4583 37.4375 25.3906L36.7969 24.6328ZM44.2969 20.4453H47.9219V16.6172H45.1562V14.5859H59.1094V16.6172H56.5938V20.4453H59.7656V22.4766H56.5938V28.8828H54.3281V22.4766H50.1406C50.0365 24.3724 49.6797 25.7969 49.0703 26.75C48.4661 27.6979 47.5417 28.513 46.2969 29.1953C45.7135 28.6849 45.0573 28.1536 44.3281 27.6016C45.2917 27.0859 46.0911 26.4688 46.7266 25.75C47.3672 25.0312 47.737 23.9401 47.8359 22.4766H44.2969V20.4453ZM50.1875 20.4453H54.3281V16.6172H50.1875V20.4453ZM60.8438 22.1797H75.1875V24.1484H71.2969C72.2865 25.3464 73.3542 26.6953 74.5 28.1953L72.5938 29.3516C72.3646 29.0182 72.125 28.6693 71.875 28.3047C69.8958 28.3776 67.4167 28.5026 64.4375 28.6797C63.9896 28.7109 63.4427 28.7891 62.7969 28.9141L61.8594 27.0234C62.8177 26.3359 63.7656 25.3776 64.7031 24.1484H60.8438V22.1797ZM69.7188 13.7109L69.2812 14.2422C70.625 16.2109 72.7917 17.888 75.7812 19.2734C75.2292 19.9505 74.7604 20.5651 74.375 21.1172C73.5938 20.7005 72.8646 20.263 72.1875 19.8047V20.8672H63.8125V19.7109C63.1354 20.1693 62.4062 20.6276 61.625 21.0859C61.3229 20.6589 60.8542 20.0443 60.2188 19.2422C63.6354 17.4401 65.9062 15.5964 67.0312 13.7109H69.7188ZM68 15.9609C67.2604 16.9297 66.2188 17.9193 64.875 18.9297H71C69.8229 18.013 68.8229 17.0234 68 15.9609ZM69.375 24.9609L70.7188 24.1484H67.4219C66.8802 24.8359 66.1927 25.6224 65.3594 26.5078C66.5677 26.5078 68.2604 26.4609 70.4375 26.3672C70.1042 25.9193 69.75 25.4505 69.375 24.9609ZM86.1875 13.6172C86.7708 14.8047 87.3073 15.987 87.7969 17.1641L85.9844 17.9609C85.5052 16.7422 84.9896 15.5182 84.4375 14.2891L86.1875 13.6172ZM78.7656 13.8516C79.526 14.8516 80.2135 15.8151 80.8281 16.7422L78.8594 17.9453C78.1615 16.7161 77.526 15.6953 76.9531 14.8828L78.7656 13.8516ZM91.1406 15.4141C90.6042 19.0755 89.4609 22.0495 87.7109 24.3359C88.8828 25.4297 90.25 26.2995 91.8125 26.9453C91.2812 27.6432 90.7917 28.3464 90.3438 29.0547C88.7448 28.3047 87.3411 27.3177 86.1328 26.0938C84.9297 27.25 83.4844 28.2839 81.7969 29.1953C81.3594 28.4766 80.8698 27.8099 80.3281 27.1953C82.0052 26.4141 83.4479 25.4609 84.6562 24.3359C83.0833 22.112 81.9271 19.2214 81.1875 15.6641L83.125 15.0078C83.7812 18.1276 84.8073 20.6667 86.2031 22.625C87.724 20.5573 88.6979 17.9974 89.125 14.9453L91.1406 15.4141ZM81.6094 23.1797C81.7135 24.1901 81.8333 24.9818 81.9688 25.5547C80.3333 26.763 79.2135 27.6797 78.6094 28.3047L77.4844 26.7578C77.7135 26.487 77.8333 26.0599 77.8438 25.4766V20.7891H76.3125V18.6797H79.9688V24.5234C80.4792 24.138 81.026 23.6901 81.6094 23.1797Z" fill="white"/>
</svg>
