<svg width="32" height="32" viewBox="0 0 32 32" fill="none" xmlns="http://www.w3.org/2000/svg">
<path fill-rule="evenodd" clip-rule="evenodd" d="M16 2C13.2386 2 11 4.23858 11 7V17C11 19.7614 13.2386 22 16 22C18.7614 22 21 19.7614 21 17V7C21 4.23858 18.7614 2 16 2ZM7 17V16H9V17C9 20.866 12.134 24 16 24C19.866 24 23 20.866 23 17V16H25V17C25 21.6326 21.5 25.4476 17 25.9451V28H20C20.5523 28 21 28.4477 21 29C21 29.5523 20.5523 30 20 30H17H15H12C11.4477 30 11 29.5523 11 29C11 28.4477 11.4477 28 12 28H15V25.9451C10.5 25.4476 7 21.6326 7 17Z" fill="white"/>
</svg>
